<svg xmlns="http://www.w3.org/2000/svg" xmlns:xlink="http://www.w3.org/1999/xlink" width="228.632" height="181.671" viewBox="0 0 228.632 181.671">
  <defs>
    <linearGradient id="linear-gradient" x1="0.5" x2="0.5" y2="1" gradientUnits="objectBoundingBox">
      <stop offset="0" stop-color="#374fa2"/>
      <stop offset="1" stop-color="#efad20"/>
    </linearGradient>
  </defs>
  <g id="undraw_stepping_up_g6oo" transform="translate(0 0)">
    <path id="Path_39" data-name="Path 39" d="M751.209,614.791a12.773,12.773,0,0,1-4.583-11.011,10.326,10.326,0,0,1,7.677-8.766c4.05-.873,8.667,1.544,9.9,5.5.677-7.628,1.457-15.575,5.512-22.07A23.374,23.374,0,0,1,786.637,567.6a20.972,20.972,0,0,1,18.449,7.531,19.034,19.034,0,0,1,2.34,19.6c-2.218,4.6-6.3,8.025-10.585,10.811a68.317,68.317,0,0,1-46.725,10.222" transform="translate(-580.658 -435.302)" fill="#f2f2f2"/>
    <path id="Path_40" data-name="Path 40" d="M832.432,573.921a112.731,112.731,0,0,0-33.122,44.788c-.316.774.941,1.111,1.254.346a111.476,111.476,0,0,1,32.788-44.214c.649-.528-.276-1.443-.919-.919Z" transform="translate(-614.82 -439.373)" fill="#fff"/>
    <path id="Path_41" data-name="Path 41" d="M396.735,629.994H378.787a2.29,2.29,0,0,1-2.287-2.287V590.4a2.29,2.29,0,0,1,2.287-2.287h17.948a2.29,2.29,0,0,1,2.287,2.287v37.3A2.29,2.29,0,0,1,396.735,629.994Z" transform="translate(-340.837 -448.675)" fill="url(#linear-gradient)"/>
    <path id="Path_42" data-name="Path 42" d="M517.087,564.89H499.139a2.642,2.642,0,0,1-2.64-2.639V489.755a2.642,2.642,0,0,1,2.639-2.639h17.948a2.642,2.642,0,0,1,2.639,2.639V562.25A2.642,2.642,0,0,1,517.087,564.89Zm-17.948-77.07a1.938,1.938,0,0,0-1.936,1.936V562.25a1.938,1.938,0,0,0,1.936,1.936h17.948a1.938,1.938,0,0,0,1.935-1.936V489.755a1.938,1.938,0,0,0-1.935-1.936Z" transform="translate(-418.607 -383.218)" fill="#3f3d56"/>
    <path id="Path_43" data-name="Path 43" d="M638.087,479.991H620.139a2.642,2.642,0,0,1-2.639-2.639v-118.6a2.643,2.643,0,0,1,2.639-2.639h17.948a2.642,2.642,0,0,1,2.639,2.639v118.6A2.642,2.642,0,0,1,638.087,479.991ZM620.139,356.82a1.938,1.938,0,0,0-1.935,1.936v118.6a1.938,1.938,0,0,0,1.935,1.936h17.948a1.938,1.938,0,0,0,1.935-1.936v-118.6a1.938,1.938,0,0,0-1.935-1.936Z" transform="translate(-497.025 -298.32)" fill="#3f3d56"/>
    <path id="Path_44" data-name="Path 44" d="M760.864,391.352H742.916a2.29,2.29,0,0,1-2.287-2.287V221.9a2.29,2.29,0,0,1,2.287-2.287h17.948a2.29,2.29,0,0,1,2.287,2.288V389.064A2.29,2.29,0,0,1,760.864,391.352Z" transform="translate(-576.823 -209.856)" fill="url(#linear-gradient)"/>
    <path id="Path_45" data-name="Path 45" d="M460.035,385.78a3.539,3.539,0,0,0-3.689-3.98l-6.256-11.475-1.408,4.927,4.286,10.517a3.558,3.558,0,0,0,7.066.011Z" transform="translate(-387.618 -307.528)" fill="#a0616a"/>
    <path id="Path_46" data-name="Path 46" d="M68.816,326.361,72.3,328.9l11.471-12.23-5.143-3.755Z" transform="translate(-44.598 -202.798)" fill="#a0616a"/>
    <path id="Path_47" data-name="Path 47" d="M0,0H13.56V5.239H5.239A5.239,5.239,0,0,1,0,0H0Z" transform="matrix(-0.808, -0.59, 0.59, -0.808, 32.06, 134.248)" fill="#2f2e41"/>
    <path id="Path_48" data-name="Path 48" d="M121.2,358.73h4.314l2.052-16.641H121.2Z" transform="translate(-78.547 -221.701)" fill="#a0616a"/>
    <path id="Path_49" data-name="Path 49" d="M0,0H13.56V5.239H5.239A5.239,5.239,0,0,1,0,0H0Z" transform="translate(55.287 141.035) rotate(179.997)" fill="#2f2e41"/>
    <path id="Path_50" data-name="Path 50" d="M404.667,388.235s2.112,20.411-3.167,34.488l-3.871,26.746h-6.686l.7-31.673-2.463-28.153S394.11,376.974,404.667,388.235Z" transform="translate(-349.057 -316.112)" fill="#2f2e41"/>
    <path id="Path_51" data-name="Path 51" d="M80.707,204.4l7.038,24.282L74.021,250.5l6.862,5.807,15.66-24.458L91.969,201.94Z" transform="translate(-47.972 -130.874)" fill="#2f2e41"/>
    <circle id="Ellipse_17" data-name="Ellipse 17" cx="8.643" cy="8.643" r="8.643" transform="translate(42.041 1.792)" fill="#a0616a"/>
    <path id="Path_52" data-name="Path 52" d="M372.994,253.855s5.279-3.519,11.261,4.223l1.584,48.741s-4.575-6.335-14.077-.352-11.613-.7-11.613-.7S353.463,255.439,372.994,253.855Z" transform="translate(-329.525 -231.529)" fill="#ccc"/>
    <path id="Path_53" data-name="Path 53" d="M417.515,266.958h0a6.161,6.161,0,0,1,5.82,5.828L424.452,294l7.39,20.059-4.223,3.519-13.725-23.93-2.81-19.67a6.161,6.161,0,0,1,6.431-7.023Z" transform="translate(-363.211 -240.532)" fill="#ccc"/>
    <path id="Path_54" data-name="Path 54" d="M394.477,208.8a2.447,2.447,0,0,0,4.221-1.359,2.485,2.485,0,0,0,0-.48c-.1-.911-.621-1.738-.5-2.7a1.416,1.416,0,0,1,.259-.663c1.126-1.508,3.769.674,4.832-.691.652-.837-.114-2.155.386-3.09.66-1.235,2.615-.626,3.841-1.3,1.364-.752,1.282-2.845.385-4.118a6.478,6.478,0,0,0-4.911-2.5,13.172,13.172,0,0,0-5.549,1.083,11.089,11.089,0,0,0-5.243,3.635,8.874,8.874,0,0,0-.9,7.556A14.248,14.248,0,0,0,394.477,208.8Z" transform="translate(-350.143 -191.884)" fill="#2f2e41"/>
    <path id="Path_55" data-name="Path 55" d="M503.376,706.147H275.581a.419.419,0,1,1,0-.838H503.376a.419.419,0,1,1,0,.838Z" transform="translate(-275.162 -524.626)" fill="#3f3d56"/>
  </g>
</svg>
