<svg xmlns="http://www.w3.org/2000/svg" width="718.038" height="327.834" viewBox="0 0 718.038 327.834">
  <g id="Group_284" data-name="Group 284" transform="translate(-904.767 -328.681)">
    <g id="Group_7" data-name="Group 7" transform="translate(904.767 328.681)">
      <g id="Rectangle_43" data-name="Rectangle 43" transform="translate(311 153.834)" fill="#f9f9f9" stroke="#374fa2" stroke-width="1">
        <rect width="174" height="174" rx="10" stroke="none"/>
        <rect x="0.5" y="0.5" width="173" height="173" rx="9.5" fill="none"/>
      </g>
      <g id="undraw_Artificial_intelligence_re_enpp_1_" data-name="undraw_Artificial_intelligence_re_enpp (1)" transform="translate(0 0)">
        <circle id="Ellipse_1" data-name="Ellipse 1" cx="32.191" cy="32.191" r="32.191" transform="translate(627.943 120.554)" fill="#efad20"/>
        <circle id="Ellipse_2" data-name="Ellipse 2" cx="8.471" cy="8.471" r="8.471" transform="translate(651.662 144.274)" fill="#e6e6e6"/>
        <path id="Path_1" data-name="Path 1" d="M921.85,421.569c3.568,2.911,4.656,7.5,3.992,11.929a20.714,20.714,0,0,1-7.111,12.436c-4.243,3.772-9.419,6.32-14.413,8.93a104.835,104.835,0,0,0-13.194,8.009,102.253,102.253,0,0,0-35.141,46.846c-6.933,18.518-8.793,39.537-3.525,58.729,2.606,9.5,7.88,19.741,17.7,23.314,7.83,2.848,18.521,1.013,22.509-7.057,4.283-8.669-1.693-18.414-9.39-22.718-9.978-5.579-21.9-1.5-30.87,4.145-9.88,6.217-17.823,15.138-28.138,20.711a35.356,35.356,0,0,1-15.116,4.41,37.856,37.856,0,0,1-14.324-2.213A48.517,48.517,0,0,1,771.4,570.851c-6.552-9.524-9.485-21.2-10.02-32.635-1.2-25.588,8.911-49.527,17.022-73.257a223.811,223.811,0,0,0,9.758-38,196.872,196.872,0,0,0,2.156-39.3c-.537-11.617-1.683-23.765-6.81-34.375-4.509-9.33-12.748-16.966-23.166-18.891a23.108,23.108,0,0,0-13.926,1.6c-1.486.678-.2,2.869,1.283,2.194,9.219-4.206,20.115-.114,26.925,6.677,7.952,7.93,10.872,19.639,12.168,30.444a191.1,191.1,0,0,1-6.75,76.235c-7.071,24.018-18.193,47.033-20.759,72.2-1.171,11.482-.569,23.353,3.1,34.363a53.673,53.673,0,0,0,17.009,25.046c7.49,6.055,16.705,10.181,26.406,10.641,10.889.516,20.438-4.339,28.887-10.8,9.048-6.917,17.373-15.451,28.334-19.329,5-1.768,10.688-2.593,15.819-.891a19.848,19.848,0,0,1,10.549,8.481c2.228,3.705,3.05,8.338,1.017,12.318-1.912,3.742-5.644,5.907-9.683,6.648a18.79,18.79,0,0,1-12.473-2.119c-4.425-2.527-7.664-6.769-9.932-11.251-4.524-8.937-6.044-19.575-6.275-29.494a97.665,97.665,0,0,1,3.684-28.678,101.2,101.2,0,0,1,30.572-48.734,89.755,89.755,0,0,1,11.838-8.716c4.557-2.809,9.422-5.054,14.068-7.7,4.572-2.608,9.077-5.724,12.226-10.016a21.547,21.547,0,0,0,4.14-12.665,14.2,14.2,0,0,0-4.917-11.074c-1.257-1.025-3.065.762-1.8,1.8Z" transform="translate(-263.264 -268.644)" fill="#ccc"/>
        <path id="Path_4" data-name="Path 4" d="M725.439,311.931c-.635-.093-1.279-.152-1.923-.195a71.142,71.142,0,0,1,1.414,53.123c.644-.076,1.279-.178,1.915-.3a26.686,26.686,0,0,0-1.406-52.632Z" transform="translate(-259.864 -265.246)" fill="#efad20"/>
        <path id="Path_5" data-name="Path 5" d="M564.9,311.736c-.644.042-1.288.1-1.923.195a26.686,26.686,0,0,0-1.406,52.632c.635.119,1.271.22,1.915.3a71.142,71.142,0,0,1,1.415-53.123Z" transform="translate(-231.802 -265.246)" fill="#efad20"/>
        <path id="Path_6" data-name="Path 6" d="M700.51,303.893a72.85,72.85,0,1,0,5.65,28.124A72.85,72.85,0,0,0,700.51,303.893ZM700,356.822a71.142,71.142,0,1,1,4.464-24.8A71.143,71.143,0,0,1,700,356.822Z" transform="translate(-234.935 -257.208)" fill="#efad20"/>
        <path id="Path_7" data-name="Path 7" d="M674.327,325.666H599.781a14.825,14.825,0,0,0,0,29.649h74.547a14.825,14.825,0,1,0,0-29.649Z" transform="translate(-238.681 -267.375)" fill="#efad20"/>
        <g id="Group_6" data-name="Group 6" transform="translate(328.914 180.458)">
          <path id="Path_8" data-name="Path 8" d="M625.957,448.166a69.489,69.489,0,0,0-3.135,138.906c.734.039,1.475.062,2.216.062.309.015.61.015.919.015a69.492,69.492,0,1,0,0-138.983Zm35.279,127.54a67.535,67.535,0,0,1-35.279,9.9c-.564,0-1.12-.008-1.683-.023q-.359,0-.718-.023a67.987,67.987,0,1,1,37.68-9.852Z" transform="translate(-556.497 -448.166)" fill="#efad20"/>
          <path id="Path_38" data-name="Path 38" d="M618.729,448.166a62.258,62.258,0,0,0-2.809,124.451c.657.035,1.321.055,1.985.055.277.014.546.014.823.014a62.26,62.26,0,1,0,0-124.52Zm31.607,114.268a60.507,60.507,0,0,1-31.607,8.868c-.505,0-1-.007-1.508-.021q-.322,0-.643-.021a60.911,60.911,0,1,1,33.759-8.827Z" transform="translate(-549.519 -440.934)" fill="#efad20"/>
        </g>
        <path id="Path_10" data-name="Path 10" d="M315.649,618c7.618-6.437,12.245-16.606,11.032-26.5s-8.729-19-18.479-21.1-20.863,3.717-23.824,13.24c-1.63-18.361-3.508-37.491-13.269-53.127-8.839-14.158-24.149-24.289-40.741-26.1s-34.061,5.033-44.409,18.129-12.882,32.135-5.634,47.17c5.339,11.076,15.175,19.319,25.481,26.025,32.879,21.394,73.665,28.623,112.474,22.911Z" transform="translate(-176.191 -294.657)" fill="#efad20"/>
        <path id="Path_11" data-name="Path 11" d="M206.594,510.78a269.063,269.063,0,0,1,37.5,37.235,272.9,272.9,0,0,1,29.571,43.765,271.809,271.809,0,0,1,12.663,26.812c.76,1.864-2.266,2.675-3.018.832a267.075,267.075,0,0,0-24.4-46.173,268.767,268.767,0,0,0-32.729-40.432,268.123,268.123,0,0,0-21.793-19.826c-1.562-1.272.663-3.475,2.213-2.213Z" transform="translate(-180.419 -295.617)" fill="#fff"/>
        <circle id="Ellipse_6" data-name="Ellipse 6" cx="26.261" cy="26.261" r="26.261" transform="translate(110.613 3.388)" fill="#2f2e41"/>
        <path id="Path_12" data-name="Path 12" d="M440.172,399.579a9.135,9.135,0,0,1-1.82,2.01,9.32,9.32,0,0,1-13.746-2.116,8.67,8.67,0,0,1-.455-.794l-41.382-3.992A15.259,15.259,0,0,1,369.311,382.4l-2.349-12.382,16.15-2.512,2.9,9.919,40.347,9.911a8.878,8.878,0,0,1,.991-.754,9.32,9.32,0,0,1,12.824,13Z" transform="translate(-205.355 -273.772)" fill="#ffb8b8"/>
        <path id="Path_13" data-name="Path 13" d="M385.313,371.233l-18.04,4.873a3.816,3.816,0,0,1-4.674-2.686l-6.319-23.391a10.5,10.5,0,0,1,19.487-7.529l11.945,23.314a3.812,3.812,0,0,1-2.4,5.418Z" transform="translate(-203.666 -269.075)" fill="#2f2e41"/>
        <path id="Path_14" data-name="Path 14" d="M202.092,366.9h10.385l4.941-40.059H202.089Z" transform="translate(-30.895 -49.967)" fill="#ffb8b8"/>
        <path id="Path_15" data-name="Path 15" d="M0,0H32.64V12.611H12.611A12.611,12.611,0,0,1,0,0H0Z" transform="translate(201.609 326.58) rotate(179.997)" fill="#2f2e41"/>
        <path id="Path_16" data-name="Path 16" d="M92.822,355.422l9.717,3.668,18.774-35.73-14.34-5.414Z" transform="translate(-14.191 -48.607)" fill="#ffb8b8"/>
        <path id="Path_17" data-name="Path 17" d="M0,0H32.64V12.611H12.611A12.611,12.611,0,0,1,0,0H0Z" transform="translate(103.676 326.579) rotate(-159.315)" fill="#2f2e41"/>
        <path id="Path_18" data-name="Path 18" d="M361.491,586.8a3.81,3.81,0,0,1-3.622-2.638l-26.488-81.8a1.271,1.271,0,0,0-2.359-.15l-36.71,78.106a3.816,3.816,0,0,1-4.655,2l-14.458-4.82a3.82,3.82,0,0,1-2.48-4.59l22.486-85.176a194.077,194.077,0,0,0,5.086-27.469,62.272,62.272,0,0,1,20.091-39.711,28.976,28.976,0,0,0,9.12-17.335l.061-.426,32.931,5.2,20.859,170.212a3.829,3.829,0,0,1-2.793,4.144l-16.073,4.328A3.793,3.793,0,0,1,361.491,586.8Z" transform="translate(-190.623 -279.165)" fill="#2f2e41"/>
        <circle id="Ellipse_7" data-name="Ellipse 7" cx="20.806" cy="20.806" r="20.806" transform="translate(126.5 14.173)" fill="#ffb8b8"/>
        <path id="Path_19" data-name="Path 19" d="M366.9,400.542c-.065,0-.13,0-.2-.005L334.061,398.9a3.791,3.791,0,0,1-3.6-3.418L326,352.005a19.629,19.629,0,0,1,24.841-20.9h0a19.039,19.039,0,0,1,6.985,3.593c22.964,18.859,15.559,53.028,12.743,63.052a3.8,3.8,0,0,1-3.667,2.791Z" transform="translate(-199.077 -268.095)" fill="#374fa2"/>
        <path id="Path_20" data-name="Path 20" d="M335.452,433.715a9.134,9.134,0,0,1-2.684-.4,9.32,9.32,0,0,1-5.851-12.616,8.685,8.685,0,0,1,.409-.819l-19.6-36.665A15.259,15.259,0,0,1,310.5,365.2l9.008-8.815,11.038,12.054-6.652,7.907,14.1,39.081a8.875,8.875,0,0,1,1.177.408,9.32,9.32,0,0,1-3.716,17.876Z" transform="translate(-196.028 -272.072)" fill="#ffb8b8"/>
        <path id="Path_21" data-name="Path 21" d="M326.482,372.822l-14.05-12.32a3.816,3.816,0,0,1-.353-5.379l15.974-18.217a10.5,10.5,0,0,1,17.063,12.054l-12.794,22.859a3.812,3.812,0,0,1-5.84,1Z" transform="translate(-196.821 -268.547)" fill="#2f2e41"/>
        <path id="Path_22" data-name="Path 22" d="M331.589,312.836c1.9.673,4.226,1.267,5.719-.129,1.458-1.363,1.193-3.855.334-5.691s-2.191-3.47-2.6-5.469c-.585-2.864.928-5.84,3.089-7.707s4.881-2.848,7.536-3.792l14.565-5.177c3.605-1.282,7.49-2.787,9.508-6.16,2.919-4.88.25-11.856-4.538-14.7s-10.837-2.317-16-.315c-2.857,1.107-5.575,2.633-8.53,3.413-5.832,1.539-12.463.158-17.588,3.447-4.461,2.862-6.53,8.7-6.38,14.168s2.162,10.669,4.285,15.667a29.134,29.134,0,0,0,4.75,8.346c2.139,2.365,5.229,4.019,8.316,3.584Z" transform="translate(-197.67 -257.647)" fill="#2f2e41"/>
        <circle id="Ellipse_8" data-name="Ellipse 8" cx="16.942" cy="16.942" r="16.942" transform="translate(97.907)" fill="#2f2e41"/>
        <path id="Path_22-2" data-name="Path 22" d="M468.129,389.393l-.3-.041,1.132-8.236a4.812,4.812,0,0,0-4.112-5.422l-17.45-2.4a4.812,4.812,0,0,0-5.422,4.112l-6.211,45.186a4.812,4.812,0,0,0,4.112,5.422l17.45,2.4a4.812,4.812,0,0,0,5.422-4.112l4.274-31.087.3.041Z" transform="translate(-215.867 -274.65)" fill="#3f3d56"/>
        <path id="Path_23" data-name="Path 23" d="M464.67,378.565l-2.172-.3a1.628,1.628,0,0,1-1.8,2.017l-9.536-1.311a1.628,1.628,0,0,1-1.188-2.428l-2.029-.279a3.428,3.428,0,0,0-3.863,2.929l-5.916,43.038A3.428,3.428,0,0,0,441.1,426.1l16.725,2.3a3.428,3.428,0,0,0,3.862-2.929h0l5.916-43.038a3.428,3.428,0,0,0-2.929-3.862Z" transform="translate(-216.236 -275.106)" fill="#fff"/>
        <circle id="Ellipse_9" data-name="Ellipse 9" cx="9.318" cy="9.318" r="9.318" transform="translate(227.254 120.554)" fill="#374fa2"/>
        <path id="Path_23-2" data-name="Path 23" d="M453.8,413.083a.966.966,0,0,1-.582-.193l-.01-.008-2.19-1.677a.973.973,0,1,1,1.183-1.545l1.418,1.088,3.352-4.371a.973.973,0,0,1,1.364-.18l-.021.028.021-.028a.974.974,0,0,1,.18,1.364l-3.943,5.142A.973.973,0,0,1,453.8,413.083Z" transform="translate(-218.146 -279.656)" fill="#fff"/>
        <path id="Path_24" data-name="Path 24" d="M894.129,642.78H183.144a1.009,1.009,0,0,1,0-2.017H894.129a1.009,1.009,0,0,1,0,2.017Z" transform="translate(-177.1 -315.546)" fill="#efad20"/>
      </g>
    </g>
    <line id="Line_2" data-name="Line 2" x2="170.295" transform="translate(1217.437 498.829)" fill="none" stroke="#374fa2" stroke-linecap="square" stroke-width="1"/>
    <text id="_" data-name="!" transform="translate(1289.767 608.516)" fill="#efad20" font-size="84" font-family="Rooney-Regular, Rooney"><tspan x="0" y="0">!</tspan></text>
  </g>
</svg>
