<svg xmlns="http://www.w3.org/2000/svg" xmlns:xlink="http://www.w3.org/1999/xlink" width="119.889" height="143.007" viewBox="0 0 119.889 143.007">
  <defs>
    <linearGradient id="linear-gradient" x1="0.676" y1="0.104" x2="0.346" y2="0.846" gradientUnits="objectBoundingBox">
      <stop offset="0" stop-color="#6d6afe"/>
      <stop offset="1" stop-color="#4242bd"/>
    </linearGradient>
    <linearGradient id="linear-gradient-2" x1="0.289" y1="0.901" x2="0.719" y2="0.085" gradientUnits="objectBoundingBox">
      <stop offset="0" stop-color="#b54d00"/>
      <stop offset="1" stop-color="#d35f00"/>
    </linearGradient>
    <linearGradient id="linear-gradient-3" x1="0.265" y1="0.331" x2="0.421" y2="0.616" xlink:href="#linear-gradient-2"/>
    <linearGradient id="linear-gradient-4" x1="0.36" y1="0.769" x2="0.782" y2="-0.044" xlink:href="#linear-gradient-2"/>
    <linearGradient id="linear-gradient-5" x1="0.621" y1="0.038" x2="0.413" y2="0.803" gradientUnits="objectBoundingBox">
      <stop offset="0" stop-color="#d870ac"/>
      <stop offset="1" stop-color="#58469c"/>
    </linearGradient>
    <linearGradient id="linear-gradient-6" x1="0.621" y1="0.039" x2="0.414" y2="0.804" xlink:href="#linear-gradient-5"/>
    <linearGradient id="linear-gradient-7" x1="0.242" y1="0.117" x2="0.494" y2="0.745" gradientUnits="objectBoundingBox">
      <stop offset="0" stop-color="#fd9c3c"/>
      <stop offset="1" stop-color="#ffc15e"/>
    </linearGradient>
    <linearGradient id="linear-gradient-8" x1="0.401" y1="0.47" x2="0.734" y2="0.57" xlink:href="#linear-gradient-7"/>
    <linearGradient id="linear-gradient-9" x1="0.483" y1="0.879" x2="0.515" y2="0.156" xlink:href="#linear-gradient-2"/>
    <linearGradient id="linear-gradient-10" x1="0.45" y1="0.301" x2="0.572" y2="0.787" gradientUnits="objectBoundingBox">
      <stop offset="0" stop-color="#8e7bfd"/>
      <stop offset="1" stop-color="#72a8f9"/>
    </linearGradient>
    <linearGradient id="linear-gradient-11" x1="0.426" y1="0.762" x2="0.842" y2="-0.04" xlink:href="#linear-gradient-2"/>
    <linearGradient id="linear-gradient-12" x1="0.525" y1="0.749" x2="0.465" y2="0.153" gradientUnits="objectBoundingBox">
      <stop offset="0" stop-color="#fd9c3c"/>
      <stop offset="1" stop-color="#ff7e00"/>
    </linearGradient>
    <linearGradient id="linear-gradient-13" x1="0.307" y1="0.866" x2="0.592" y2="0.118" gradientUnits="objectBoundingBox">
      <stop offset="0" stop-color="#1c8ef4"/>
      <stop offset="1" stop-color="#00cfdd"/>
    </linearGradient>
    <linearGradient id="linear-gradient-14" x1="0.395" y1="0.806" x2="0.667" y2="0.093" xlink:href="#linear-gradient-13"/>
    <linearGradient id="linear-gradient-15" x1="0.296" y1="0.221" x2="0.747" y2="0.779" gradientUnits="objectBoundingBox">
      <stop offset="0" stop-color="#3e4795"/>
      <stop offset="1" stop-color="#273088"/>
    </linearGradient>
    <linearGradient id="linear-gradient-16" x1="0.149" y1="0.22" x2="1.056" y2="0.742" xlink:href="#linear-gradient-15"/>
    <linearGradient id="linear-gradient-17" x1="0.35" y1="0.853" x2="0.656" y2="0.05" xlink:href="#linear-gradient-13"/>
    <linearGradient id="linear-gradient-18" x1="0.267" y1="0.89" x2="0.574" y2="0.084" xlink:href="#linear-gradient-13"/>
    <linearGradient id="linear-gradient-19" x1="0.32" y1="0.284" x2="0.633" y2="0.643" gradientUnits="objectBoundingBox">
      <stop offset="0" stop-color="#ff8a78"/>
      <stop offset="1" stop-color="#ffa799"/>
    </linearGradient>
    <linearGradient id="linear-gradient-20" x1="0.389" y1="0.316" x2="0.563" y2="0.791" gradientUnits="objectBoundingBox">
      <stop offset="0" stop-color="#ffb89e"/>
      <stop offset="1" stop-color="#ffa799"/>
    </linearGradient>
    <linearGradient id="linear-gradient-21" x1="0.011" y1="0.187" x2="0.669" y2="0.82" gradientUnits="objectBoundingBox">
      <stop offset="0" stop-color="#8a4791"/>
      <stop offset="1" stop-color="#562e65"/>
    </linearGradient>
    <linearGradient id="linear-gradient-22" x1="0.427" y1="0.519" x2="0.331" y2="0.631" xlink:href="#linear-gradient-20"/>
    <linearGradient id="linear-gradient-23" x1="0.41" y1="0.534" x2="0.659" y2="-0.118" xlink:href="#linear-gradient-13"/>
  </defs>
  <g id="tap" transform="translate(-27.2 -25.004)">
    <g id="Group_212" data-name="Group 212" transform="translate(37.903 25.004)">
      <g id="Group_208" data-name="Group 208" transform="translate(0 0)">
        <path id="Path_551" data-name="Path 551" d="M314.8,33.831l1,0,0,2.008-1,0,0-2.008Zm-22.964,5.155.87-.506-.5-.868c-.289.17-.582.338-.87.506l.5.868Zm1.739-1.013,1.735-1.011L294.8,36.1q-.866.507-1.733,1.011l.5.866Zm2.6-1.517c.578-.336,1.157-.674,1.733-1.013l-.506-.866q-.866.507-1.733,1.013l.506.866Zm2.6-1.519,1.733-1.013L300,33.058l-1.733,1.013.506.866Zm2.6-1.519,1.733-1.013-.506-.866c-.578.338-1.157.673-1.733,1.013l.506.866Zm2.6-1.517q.866-.5,1.735-1.011l-.5-.868-1.735,1.011.5.868Zm2.6-1.515,1.735-1.009-.5-.868-1.737,1.009.506.868Zm2.6-1.511,1.737-1-.5-.868-1.739,1,.5.868Zm2.605-1.505c.58-.33,1.159-.667,1.739-1l-.5-.872c-.584.318-1.163.673-1.741,1l.5.87Zm2.48-1.353a.564.564,0,0,1,.216,0l.038.012a.312.312,0,0,1,.051.026l.036.024a.684.684,0,0,1,.053.053.94.94,0,0,1,.15.57v.1l1,0V26.7a1.52,1.52,0,0,0-1.367-1.7,1.669,1.669,0,0,0-.344.022l.164.989Zm.542,1.794,1,0,0,2.008-1,0,0-2.008Zm0,3.01,1,0,0,2.008-1,0Z" transform="translate(-249.788 -25.004)" fill="#fff" fill-rule="evenodd"/>
        <path id="Path_552" data-name="Path 552" d="M98.115,154.029l1.733-1.013-.506-.866-1.733,1.013.506.866Zm-15.8,38.049,0-1.151-1,0,0,1.151,1,0Zm0-2.156-1,0,0-2.008,1,0,0,2.008Zm0-3.01-1,0,0-2.008,1,0,0,2.008Zm0-3.01-1,0,0-2.008,1,0,0,2.008Zm0-3.01-1,0,0-2.008,1,0,0,2.008Zm0-3.01-1,0,0-2.008,1,0,0,2.008Zm0-3.01-1,0,0-2.008,1,0v2.008Zm0-3.012-1,0,0-2.008,1,0,0,2.008Zm0-3.01-1,0,0-2.008,1,0,0,2.008Zm0-3.01-1,0,0-1a3.474,3.474,0,0,1,.21-1.151l.945.338a2.477,2.477,0,0,0-.15.815l0,1Zm.544-2.6a2.816,2.816,0,0,1,.888-.88h0l.449-.257-.5-.87c-.148.085-.3.17-.449.259a3.787,3.787,0,0,0-1.218,1.191l.833.558Zm2.205-1.638c.58-.334,1.161-.667,1.741-1l-.5-.868-1.739,1,.5.868ZM87.7,160.09c.58-.336,1.161-.669,1.737-1.007l-.5-.868q-.866.5-1.737,1.007l.5.868Zm2.607-1.509,1.735-1.009-.5-.868c-.578.336-1.155.674-1.735,1.009l.5.868Zm2.6-1.515c.576-.334,1.167-.667,1.735-1.011l-.506-.866L92.408,156.2l.5.866Zm2.6-1.517c.576-.34,1.155-.676,1.733-1.013l-.506-.866c-.578.336-1.159.673-1.733,1.013Z" transform="translate(-81.31 -127.001)" fill="#fff" fill-rule="evenodd"/>
        <path id="Path_553" data-name="Path 553" d="M452.59,112.6c-.58.334-1.157.671-1.739,1l.5.868c.582-.332,1.159-.669,1.739-1l-.5-.866Zm-9.053-43.219.738-.431-.506-.866-.738.431.506.866Zm1.606-.936c.576-.338,1.153-.678,1.735-1.011l-.5-.868c-.58.332-1.157.673-1.735,1.011l.5.868Zm2.6-1.515c.578-.336,1.157-.671,1.735-1.009l-.5-.868-1.737,1.009.5.868Zm2.6-1.511,1.737-1-.5-.868c-.578.336-1.159.669-1.737,1l.5.868Zm2.605-1.507,1.739-1-.5-.87-1.741,1,.5.868Zm2.571-1.472a.779.779,0,0,1,.483-.083l.032.01a.362.362,0,0,1,.1.063l.03.032a.726.726,0,0,1,.14.35l.993-.15a1.457,1.457,0,0,0-2.2-1.137l.413.916Zm.805,1.3,1,0,0,2.008-1,0,0-2.008Zm0,3.012,1,0,0,2.008-1,0,0-2.008Zm0,3.01,1,0,0,2.008-1,0,0-2.008Zm0,3.01,1,0,0,2.008-1,0,0-2.008Zm0,3.01,1,0,0,2.008-1,0,0-2.008Zm0,3.01,1,0,0,2.008-1,0,0-2.008Zm0,3.01,1,0,0,2.008-1,0,0-2.008Zm0,3.012,1,0,0,2.008-1,0,0-2.008Zm0,3.01,1,0,0,2.008-1,0,0-2.008Zm0,3.01,1,0,0,2.008-1,0,0-2.008Zm0,3.01,1,0,0,2.008-1,0,0-2.008Zm0,3.01,1,0,0,2.008-1,0,0-2.008Zm0,3.012,1,0,0,2.008-1,0,0-2.008Zm0,3.01,1,0,0,2.008-1,0,0-2.008Zm0,3.01,1,0,0,2.008-1,0,0-2.008Zm0,2.995a3.145,3.145,0,0,1-.582,1.592l.823.576a4.462,4.462,0,0,0,.651-1.393,3.383,3.383,0,0,0,.113-.744l-1-.032Zm-1.161,2.227a2.1,2.1,0,0,1-.269.186c-.465.263-.928.532-1.389.8l.5.868c.4-.227.8-.461,1.2-.69.059-.034.129-.077.188-.109l.026-.014-.01.006a3.644,3.644,0,0,0,.382-.265Z" transform="translate(-371.482 -54.151)" fill="#fff" fill-rule="evenodd"/>
      </g>
      <g id="Group_211" data-name="Group 211" transform="translate(15.899 1.048)">
        <g id="Group_209" data-name="Group 209">
          <path id="Path_554" data-name="Path 554" d="M183.918,33.422A7.95,7.95,0,0,0,181.1,36.1c.01-.2.02.542.014-.609s.655-3.01-.247-3.942a9.677,9.677,0,0,0-2.512-1.155,3.722,3.722,0,0,0-2.722.475,10.269,10.269,0,0,0-3.865,4.361,18.286,18.286,0,0,0-1.61,6.324c0,1.165.006.4.018.6a3.33,3.33,0,0,0-2.89.469,11.442,11.442,0,0,0-3.942,4.452A14.542,14.542,0,0,0,161.69,53.5a6.777,6.777,0,0,0,1.031,3.936,5.716,5.716,0,0,0,2.825,1.778c2.579.9,7.55-4.332,10.175-5.817q4.175-2.365,8.31-4.7a10.29,10.29,0,0,0,3.812-4.4,14.176,14.176,0,0,0,1.523-6.272c-.012-1.224.884-3.062-.275-3.942A4.674,4.674,0,0,0,183.918,33.422Z" transform="translate(-161.69 -30.302)" fill="#b54d00" fill-rule="evenodd"/>
          <path id="Path_555" data-name="Path 555" d="M191.289,36.621a7.951,7.951,0,0,0-2.815,2.676c.01-.2.02.542.014-.609s-.629-3.665-1.62-4.5a3.261,3.261,0,0,0-3.861-.121,10.269,10.269,0,0,0-3.865,4.361,18.288,18.288,0,0,0-1.61,6.322c0,1.165.006.4.018.6a3.323,3.323,0,0,0-2.89.469,11.427,11.427,0,0,0-3.942,4.452A14.508,14.508,0,0,0,169.06,56.7c0,2.16.625,3.768,1.64,4.615a3.331,3.331,0,0,0,3.96.049l8.428-4.769q4.175-2.365,8.31-4.7a10.3,10.3,0,0,0,3.812-4.4,14.169,14.169,0,0,0,1.523-6.272,5.828,5.828,0,0,0-1.616-4.484A3.475,3.475,0,0,0,191.289,36.621Z" transform="translate(-167.602 -32.867)" fill="#d35f00" fill-rule="evenodd"/>
        </g>
        <g id="Group_210" data-name="Group 210" transform="translate(8.399 7.959)">
          <path id="Path_556" data-name="Path 556" d="M209.72,95.286l2.585-1.491-4.065,7.04L204.15,98.5l2.583-1.491-.008-6.626,2.989-1.725Z" transform="translate(-204.15 -85.076)" fill="#fff" fill-rule="evenodd"/>
          <path id="Path_557" data-name="Path 557" d="M242.723,76.088,240.14,77.58l4.063-7.04,4.09,2.332-2.583,1.491.008,6.626-2.987,1.725Z" transform="translate(-233.021 -70.54)" fill="#fff" fill-rule="evenodd"/>
        </g>
      </g>
    </g>
    <g id="Group_257" data-name="Group 257" transform="translate(27.2 30.598)">
      <g id="Group_214" data-name="Group 214" transform="translate(15.981 11.68)">
        <path id="Path_558" data-name="Path 558" d="M109.278,622.612l39.827-22.747c1.478-.674,3.649-1.313,5.1-.429l3.709,2.261c.746.455,3.2,1.964,1.559,2.856-4.828,2.625-35.679,20.652-40.582,23.318a6.879,6.879,0,0,1-3.709.568,9.327,9.327,0,0,1-4.015-1.2l-1.482-.914c-1.048-.647-1.628-1.351-1.683-2.029C107.945,623.641,108.37,623.028,109.278,622.612Z" transform="translate(-107.996 -502.742)" fill="#955cf1" fill-rule="evenodd" opacity="0.25"/>
        <g id="Group_213" data-name="Group 213" transform="translate(2.192)">
          <path id="Path_559" data-name="Path 559" d="M119.226,229.619c.006,1.938.7,3.3,1.8,3.946l1.754,1.054c6.015-2.567,3.784-33.052,4.15-41.72l-1.847-45.484c1.553-2.714,7.528-5.081,6.134-10.624l17.632-8.254c.783-.532,21.358-12.447,17.665-14.683-.617-.374-1.228-.75-1.84-1.1-1.363-.807-3.1-.309-4.377.427h0L125.214,133.3a13.535,13.535,0,0,0-6.134,10.624Z" transform="translate(-119.08 -112.338)" fill="#303a7d" fill-rule="evenodd"/>
          <path id="Path_560" data-name="Path 560" d="M175.75,122.246a4.353,4.353,0,0,0-1.731-3.909c-1.124-.692-2.7-.617-4.443.39l-35.084,20.124a13.532,13.532,0,0,0-6.134,10.624l.146,85.694c.012,3.9,2.779,5.479,6.175,3.519l35.084-20.122a13.519,13.519,0,0,0,6.134-10.624Z" transform="translate(-126.524 -116.786)" fill-rule="evenodd" fill="url(#linear-gradient)"/>
        </g>
      </g>
      <g id="Group_215" data-name="Group 215" transform="translate(23.914 18.976)">
        <path id="Path_561" data-name="Path 561" d="M326.12,150.2a.327.327,0,1,1-.061-.651l3.392-.33a.326.326,0,0,1,.356.295.332.332,0,0,1-.069.233l-3.208,4.035a.327.327,0,0,1-.51-.407l2.73-3.432Z" transform="translate(-290.621 -149.222)" fill="#19278c" fill-rule="evenodd"/>
        <path id="Path_562" data-name="Path 562" d="M151.277,242.859a.285.285,0,0,0-.026-.133.044.044,0,0,0-.018-.02.047.047,0,0,0-.026,0,.273.273,0,0,0-.129.044l-2.039,1.2a1.006,1.006,0,0,0-.443.767l.014,2.558a.285.285,0,0,0,.026.133.038.038,0,0,0,.018.018.045.045,0,0,0,.026.006.27.27,0,0,0,.131-.046l2.039-1.2a1.015,1.015,0,0,0,.443-.767l-.016-2.558Zm-1.07,4.276.888-.524a1.5,1.5,0,0,0,.688-1.2l-.008-1.4.9-.532a.293.293,0,0,1,.131-.046.05.05,0,0,1,.026.006.061.061,0,0,1,.016.02.262.262,0,0,1,.026.133l.014,2.558a.935.935,0,0,1-.133.435.888.888,0,0,1-.311.332l-2.039,1.2a.293.293,0,0,1-.131.045.041.041,0,0,1-.026-.006.075.075,0,0,1-.018-.018.285.285,0,0,1-.026-.133v-.874Zm1.569-3.693.657-.388a.761.761,0,0,1,.378-.111.554.554,0,0,1,.273.069.543.543,0,0,1,.2.2.744.744,0,0,1,.093.38l.014,2.558a1.488,1.488,0,0,1-.688,1.2l-2.039,1.2a.761.761,0,0,1-.378.111.539.539,0,0,1-.473-.271.755.755,0,0,1-.093-.38l0-.584-.657.388a.761.761,0,0,1-.378.111.539.539,0,0,1-.473-.271.755.755,0,0,1-.093-.38l-.014-2.558a1.405,1.405,0,0,1,.2-.682,1.39,1.39,0,0,1,.491-.512l2.039-1.2a.761.761,0,0,1,.378-.111.535.535,0,0,1,.273.071.547.547,0,0,1,.2.2.768.768,0,0,1,.093.378Z" transform="translate(-148.1 -223.817)" fill="#19278c" fill-rule="evenodd"/>
      </g>
      <g id="Group_220" data-name="Group 220" transform="translate(22.072 103.163)">
        <g id="Group_216" data-name="Group 216" transform="translate(36.47)">
          <path id="Path_563" data-name="Path 563" d="M328.924,576.5c0-1.485-1.056-2.085-2.35-1.339l-1.07.615a5.149,5.149,0,0,0-2.334,4.043l.055.823c0,1.484,1.058,2.085,2.35,1.339l1.07-.615a5.147,5.147,0,0,0,2.334-4.043Z" transform="translate(-323.17 -574.839)" fill="#19278c" fill-rule="evenodd" opacity="0.5"/>
          <path id="Path_564" data-name="Path 564" d="M328.3,583.231l1.493-.862a.165.165,0,0,1,.263.15.426.426,0,0,1-.2.34l-1.59.918a.3.3,0,0,1-.295.024.291.291,0,0,1-.133-.267l-.006-1.826a.424.424,0,0,1,.2-.34.164.164,0,0,1,.263.15l0,1.713Zm3.038-5.261-1.489.86a.164.164,0,0,1-.263-.15.424.424,0,0,1,.2-.34l1.586-.916a.3.3,0,0,1,.3-.022.3.3,0,0,1,.129.265l.006,1.828a.426.426,0,0,1-.2.34.165.165,0,0,1-.263-.15Z" transform="translate(-326.916 -576.869)" fill="#19278c" fill-rule="evenodd"/>
        </g>
        <g id="Group_217" data-name="Group 217" transform="translate(0 21.117)">
          <path id="Path_565" data-name="Path 565" d="M144.544,683.259c0-1.485-1.056-2.085-2.35-1.339l-1.07.615a5.149,5.149,0,0,0-2.334,4.043l.055.823c0,1.485,1.056,2.085,2.35,1.339l1.07-.615a5.147,5.147,0,0,0,2.334-4.043Z" transform="translate(-138.79 -681.599)" fill="#19278c" fill-rule="evenodd" opacity="0.5"/>
          <path id="Path_566" data-name="Path 566" d="M146.313,689.229l.376-.221a.618.618,0,0,1,.3-.089.442.442,0,0,1,.229.059.467.467,0,0,1,.166.168.61.61,0,0,1,.075.3l.01,1.842a1.062,1.062,0,0,1-.152.524,1.1,1.1,0,0,1-.376.394l-1.468.866a.619.619,0,0,1-.3.089.454.454,0,0,1-.227-.059.443.443,0,0,1-.168-.168.61.61,0,0,1-.075-.3l0-.307-.376.221a.6.6,0,0,1-.3.089.451.451,0,0,1-.4-.227.61.61,0,0,1-.075-.3l-.01-1.842a1.062,1.062,0,0,1,.152-.524,1.119,1.119,0,0,1,.376-.394l1.47-.866a.619.619,0,0,1,.3-.089.466.466,0,0,1,.229.059.437.437,0,0,1,.166.168.61.61,0,0,1,.075.3v.307Zm-1.127,2.811,0,.591c0,.016,0,.047-.014.047a.156.156,0,0,0,.059-.024l1.468-.864a.664.664,0,0,0,.287-.494l-.01-1.841a.17.17,0,0,0,0-.044.287.287,0,0,0-.042.02l-.617.364.006.971a1.143,1.143,0,0,1-.53.918l-.607.356Zm.635-3.159-.04.018-1.47.866a.664.664,0,0,0-.287.494l.01,1.841c0,.016,0,.046-.014.047a.156.156,0,0,0,.059-.024l1.468-.864a.6.6,0,0,0,.2-.216.585.585,0,0,0,.087-.279l-.01-1.842A.358.358,0,0,0,145.821,688.881Z" transform="translate(-142.6 -687.047)" fill="#19278c" fill-rule="evenodd"/>
        </g>
        <g id="Group_219" data-name="Group 219" transform="translate(19.594 9.765)">
          <path id="Path_567" data-name="Path 567" d="M243.6,625.869c0-1.485-1.056-2.085-2.348-1.339l-1.07.615a5.149,5.149,0,0,0-2.334,4.043l.055.823c0,1.485,1.056,2.085,2.35,1.339l1.07-.615a5.147,5.147,0,0,0,2.334-4.043Z" transform="translate(-237.85 -624.209)" fill="#19278c" fill-rule="evenodd" opacity="0.5"/>
          <g id="Group_218" data-name="Group 218" transform="translate(1.007 1.095)">
            <path id="Path_568" data-name="Path 568" d="M255.746,643.527l-.724.417v-.178c0-.168-.123-.227-.261-.148a.578.578,0,0,0-.261.449l0,.953c0,.168.125.227.261.148a.576.576,0,0,0,.259-.449v-.178l.724-.417a.592.592,0,0,0,.259-.449A.159.159,0,0,0,255.746,643.527Z" transform="translate(-252.213 -640.774)" fill="#19278c" fill-rule="evenodd"/>
            <path id="Path_569" data-name="Path 569" d="M252.541,636.67l-2.031,1.173,0,.589,2.031-1.173a.579.579,0,0,0,.259-.449C252.8,636.652,252.68,636.591,252.541,636.67Z" transform="translate(-249.013 -635.273)" fill="#19278c" fill-rule="evenodd"/>
            <path id="Path_570" data-name="Path 570" d="M243.239,648.818a.579.579,0,0,0-.259.449c0,.158.115.233.261.15l1.869-1.078,0-.6Z" transform="translate(-242.972 -644.181)" fill="#19278c" fill-rule="evenodd"/>
            <path id="Path_571" data-name="Path 571" d="M243.2,635.675l1.867-1.078,0-.6-1.867,1.078a.564.564,0,0,0-.259.449C242.94,635.687,243.055,635.76,243.2,635.675Z" transform="translate(-242.94 -633.158)" fill="#19278c" fill-rule="evenodd"/>
            <path id="Path_572" data-name="Path 572" d="M243.229,642.937l.56-.324v.186c0,.16.123.22.261.14a.564.564,0,0,0,.261-.441l0-.961c0-.158-.117-.224-.261-.138a.573.573,0,0,0-.259.439v.188l-.56.324a.561.561,0,0,0-.259.439C242.968,642.955,243.083,643.02,243.229,642.937Z" transform="translate(-242.964 -639.063)" fill="#19278c" fill-rule="evenodd"/>
            <path id="Path_573" data-name="Path 573" d="M254.743,631.421a.592.592,0,0,0,.259-.449v-.178l.724-.417a.588.588,0,0,0,.259-.449c0-.168-.123-.227-.261-.148L255,630.2v-.178c0-.168-.123-.227-.261-.148a.578.578,0,0,0-.261.449l0,.951A.161.161,0,0,0,254.743,631.421Z" transform="translate(-252.197 -629.745)" fill="#19278c" fill-rule="evenodd"/>
          </g>
        </g>
      </g>
      <g id="Group_230" data-name="Group 230" transform="translate(38.521 16.709)">
        <path id="Path_574" data-name="Path 574" d="M268.649,148.332c0-1.418-1.007-1.992-2.241-1.278-13.08,7.5-26.133,15.268-39.216,22.771a4.915,4.915,0,0,0-2.227,3.859l-.045,40.689.024-.014-.024,20.112c0,1.418,1.009,1.992,2.243,1.278,13.08-7.5,26.133-15.268,39.216-22.771a4.915,4.915,0,0,0,2.227-3.859l.043-40.687-.024.014Z" transform="translate(-224.333 -144.969)" fill="#303a7d" fill-rule="evenodd"/>
        <g id="Group_223" data-name="Group 223">
          <g id="Group_221" data-name="Group 221" transform="translate(0.055)">
            <path id="Path_575" data-name="Path 575" d="M439.383,138.359l-1.489.86a.164.164,0,0,1-.263-.15.424.424,0,0,1,.2-.34l1.586-.916a.3.3,0,0,1,.3-.022.3.3,0,0,1,.129.265l.006,1.828a.427.427,0,0,1-.2.34.165.165,0,0,1-.263-.15Z" transform="translate(-395.024 -137.76)" fill="blue" fill-rule="evenodd"/>
            <path id="Path_576" data-name="Path 576" d="M222.693,596.806l1.493-.862a.165.165,0,0,1,.263.15.427.427,0,0,1-.2.34l-1.59.918a.3.3,0,0,1-.295.024.291.291,0,0,1-.133-.267l-.006-1.826a.424.424,0,0,1,.2-.34.164.164,0,0,1,.263.15Z" transform="translate(-222.23 -504.488)" fill="blue" fill-rule="evenodd"/>
          </g>
          <g id="Group_222" data-name="Group 222" transform="translate(0 24.722)">
            <path id="Path_577" data-name="Path 577" d="M222.435,264.125l0,1.681a.436.436,0,0,1-.2.344.179.179,0,0,1-.285-.164l-.006-1.731a.694.694,0,0,1,.1-.344.719.719,0,0,1,.249-.267l1.505-.868a.181.181,0,0,1,.287.164.436.436,0,0,1-.2.344Z" transform="translate(-221.95 -262.743)" fill="blue" fill-rule="evenodd"/>
            <path id="Path_578" data-name="Path 578" d="M441.316,464.876l0-1.675a.428.428,0,0,1,.2-.344.18.18,0,0,1,.287.164l.006,1.727a.771.771,0,0,1-.352.611l-1.5.868a.18.18,0,0,1-.287-.164.428.428,0,0,1,.2-.344Z" transform="translate(-396.597 -423.248)" fill="blue" fill-rule="evenodd"/>
          </g>
        </g>
        <g id="Group_229" data-name="Group 229" transform="translate(1.519 7.549)">
          <path id="Path_579" data-name="Path 579" d="M271.921,177.456c0-1.371-.975-1.925-2.168-1.236-12.645,7.253-25.263,14.76-37.908,22.013a4.748,4.748,0,0,0-2.154,3.73l-.061,50.057c0,1.369.975,1.923,2.168,1.234,12.645-7.253,25.265-14.762,37.908-22.013a4.748,4.748,0,0,0,2.154-3.73Z" transform="translate(-229.63 -175.924)" fill="#fff" fill-rule="evenodd"/>
          <g id="Group_226" data-name="Group 226" transform="translate(6.026 13.601)">
            <g id="Group_224" data-name="Group 224" transform="translate(0 8.834)">
              <path id="Path_580" data-name="Path 580" d="M263.555,289.439a5.345,5.345,0,0,0-3.444,4.555c-.178,2.061,1.074,3.361,2.8,2.906a5.345,5.345,0,0,0,3.444-4.555C266.53,290.284,265.278,288.983,263.555,289.439Z" transform="translate(-260.095 -289.348)" fill="#ffc15e" fill-rule="evenodd"/>
              <path id="Path_581" data-name="Path 581" d="M269.26,298.3a2.882,2.882,0,0,0-1.857,2.457c-.1,1.112.58,1.812,1.509,1.567a2.882,2.882,0,0,0,1.857-2.457C270.866,298.756,270.189,298.056,269.26,298.3Z" transform="translate(-265.95 -296.491)" fill-rule="evenodd" fill="url(#linear-gradient-2)"/>
            </g>
            <g id="Group_225" data-name="Group 225" transform="translate(8.271)">
              <path id="Path_582" data-name="Path 582" d="M314.8,245.168c0-.437-.311-.607-.69-.382L302.6,251.319a1.547,1.547,0,0,0-.686,1.2v.862c0,.437.311.607.69.382l11.518-6.533a1.547,1.547,0,0,0,.686-1.2Z" transform="translate(-301.91 -244.686)" fill="#ffc15e" fill-rule="evenodd"/>
              <path id="Path_583" data-name="Path 583" d="M309.523,278.249c0-.257-.184-.358-.407-.225l-6.8,3.857a.915.915,0,0,0-.405.708v.51c0,.257.184.358.407.226l6.8-3.857a.915.915,0,0,0,.405-.708Z" transform="translate(-301.91 -271.383)" fill="#ffc15e" fill-rule="evenodd"/>
            </g>
          </g>
          <g id="Group_228" data-name="Group 228" transform="translate(2.518 18.564)">
            <g id="Group_227" data-name="Group 227" transform="translate(7.202 13.283)">
              <path id="Path_584" data-name="Path 584" d="M303.062,352.03l-9.14-15.1L289.3,353.7l-4.692-5.71-5.843,17.976Z" transform="translate(-278.77 -336.93)" fill-rule="evenodd" fill="url(#linear-gradient-3)"/>
              <path id="Path_585" data-name="Path 585" d="M307.3,342.184a3.806,3.806,0,0,0-2.508,3.278c-.131,1.5.783,2.461,2.037,2.15a3.806,3.806,0,0,0,2.508-3.278C309.466,342.837,308.554,341.873,307.3,342.184Z" transform="translate(-299.633 -341.098)" fill="#ffdb59" fill-rule="evenodd"/>
            </g>
            <path id="Path_586" data-name="Path 586" d="M278.9,272.316c-.006-2.273-1.616-3.192-3.594-2.049l-29.373,16.657a7.878,7.878,0,0,0-3.572,6.187l.085,24.25c.006,2.273,1.618,3.19,3.6,2.049l29.371-16.657a7.876,7.876,0,0,0,3.572-6.187Z" transform="translate(-242.36 -269.775)" fill-rule="evenodd" opacity="0.2" fill="url(#linear-gradient-4)"/>
          </g>
        </g>
      </g>
      <g id="Group_233" data-name="Group 233" transform="translate(68.51 0)">
        <g id="Group_231" data-name="Group 231" transform="translate(0)">
          <path id="Path_587" data-name="Path 587" d="M373.6,73.361a1.249,1.249,0,0,0,.522,1.143l.508.307c.059-.026,2.6-13.842,2.445-14.437l5.111-2.391c.227-.154,6.191-3.608,5.121-4.257-.18-.109-.356-.218-.534-.32a1.293,1.293,0,0,0-1.268.125h0l-10.171,5.831a3.924,3.924,0,0,0-1.778,3.08Z" transform="translate(-373.56 -53.285)" fill="#fd9c3c" fill-rule="evenodd"/>
          <path id="Path_588" data-name="Path 588" d="M389.987,56.149a1.261,1.261,0,0,0-.5-1.133,1.245,1.245,0,0,0-1.288.113l-10.169,5.833a3.922,3.922,0,0,0-1.778,3.08l.042,10.92c0,1.131.805,1.588,1.79,1.021L388.25,70.15a3.925,3.925,0,0,0,1.778-3.08Z" transform="translate(-375.718 -54.568)" fill="#ffc15e" fill-rule="evenodd"/>
        </g>
        <g id="Group_232" data-name="Group 232" transform="translate(1.191 4.964)">
          <path id="Path_589" data-name="Path 589" d="M383.738,96.677l1.929-1.114-3.034,5.254-3.052-1.739,1.929-1.116-.006-4.947,2.229-1.286Z" transform="translate(-379.58 -89.089)" fill="#fd9c3c" fill-rule="evenodd"/>
          <path id="Path_590" data-name="Path 590" d="M411.059,82.522l-1.929,1.114,3.032-5.256,3.054,1.741-1.929,1.114.006,4.947-2.229,1.288Z" transform="translate(-403.285 -78.38)" fill="#fd9c3c" fill-rule="evenodd"/>
        </g>
      </g>
      <g id="Group_247" data-name="Group 247" transform="translate(0 48.146)">
        <g id="Group_242" data-name="Group 242" transform="translate(0.841 1.136)">
          <g id="Group_234" data-name="Group 234" transform="translate(17.23)">
            <path id="Path_591" data-name="Path 591" d="M128.772,493.775c0-.827-.587-1.161-1.307-.744l-8.9,5.163.243,31.584,1.838.356q3.4-1.979,6.8-3.932a2.855,2.855,0,0,0,1.3-2.249Z" transform="translate(-118.56 -455.188)" fill-rule="evenodd" opacity="0.5" fill="url(#linear-gradient-5)"/>
            <path id="Path_592" data-name="Path 592" d="M128.654,303.362c0-.827-.587-1.161-1.307-.746l-7.859,4.551-.028,31.715,1.832.374c2-1.163,4.023-2.322,6.027-3.471a2.855,2.855,0,0,0,1.3-2.249Z" transform="translate(-119.282 -302.437)" fill-rule="evenodd" opacity="0.5" fill="url(#linear-gradient-6)"/>
          </g>
          <g id="Group_241" data-name="Group 241" transform="translate(0 36.527)">
            <g id="Group_235" data-name="Group 235">
              <path id="Path_593" data-name="Path 593" d="M57.089,487.477l-.637-.336a1.017,1.017,0,0,0-.813.144c-7.623,4.371-15.23,8.9-22.854,13.27a2.865,2.865,0,0,0-1.3,2.249L31.45,532.98a.956.956,0,0,0,.322.8c.239.178.734.562,1.125.336,7.623-4.373,15.09-9.287,22.711-13.658a2.855,2.855,0,0,0,1.3-2.249Z" transform="translate(-31.45 -487.106)" fill="#f2f4ff" fill-rule="evenodd"/>
              <path id="Path_594" data-name="Path 594" d="M59.626,489.485c0-.827-.587-1.161-1.307-.744-7.623,4.371-15.23,8.9-22.854,13.27a2.86,2.86,0,0,0-1.3,2.249l-.038,30.178c0,.825.587,1.159,1.307.744,7.623-4.373,15.232-8.9,22.854-13.27a2.855,2.855,0,0,0,1.3-2.249Z" transform="translate(-33.6 -488.273)" fill="#fff" fill-rule="evenodd"/>
            </g>
            <g id="Group_238" data-name="Group 238" transform="translate(4.161 8.487)">
              <g id="Group_236" data-name="Group 236" transform="translate(0 5.324)">
                <path id="Path_595" data-name="Path 595" d="M54.576,556.987a3.227,3.227,0,0,0-2.077,2.747c-.107,1.242.647,2.027,1.687,1.753a3.228,3.228,0,0,0,2.077-2.747C56.372,557.5,55.616,556.713,54.576,556.987Z" transform="translate(-52.489 -556.933)" fill="#ffc15e" fill-rule="evenodd"/>
                <path id="Path_596" data-name="Path 596" d="M58.028,562.33a1.737,1.737,0,0,0-1.12,1.482c-.057.671.35,1.092.91.943a1.737,1.737,0,0,0,1.12-1.482C58.995,562.6,58.587,562.182,58.028,562.33Z" transform="translate(-56.03 -561.239)" fill="#fd9c3c" fill-rule="evenodd"/>
              </g>
              <g id="Group_237" data-name="Group 237" transform="translate(4.989)">
                <path id="Path_597" data-name="Path 597" d="M85.492,530.3c0-.263-.188-.366-.415-.229l-6.943,3.938a.933.933,0,0,0-.413.724v.52c0,.263.188.366.415.229l6.943-3.938a.933.933,0,0,0,.413-.724Z" transform="translate(-77.718 -530.015)" fill="#ffc15e" fill-rule="evenodd"/>
                <path id="Path_598" data-name="Path 598" d="M82.3,550.245c0-.156-.111-.216-.245-.136l-4.1,2.326a.546.546,0,0,0-.243.427v.307c0,.154.111.216.245.136l4.1-2.326a.546.546,0,0,0,.243-.427Z" transform="translate(-77.71 -546.106)" fill="#ffc15e" fill-rule="evenodd"/>
              </g>
            </g>
            <g id="Group_240" data-name="Group 240" transform="translate(2.047 11.479)">
              <g id="Group_239" data-name="Group 239" transform="translate(4.342 8.007)">
                <path id="Path_599" data-name="Path 599" d="M78.4,594.723l-5.513-9.1L70.1,595.727l-2.827-3.442L63.75,603.123Z" transform="translate(-63.75 -585.62)" fill-rule="evenodd" fill="url(#linear-gradient-7)"/>
                <path id="Path_600" data-name="Path 600" d="M80.952,588.787a2.3,2.3,0,0,0-1.513,1.976c-.079.9.471,1.483,1.228,1.3a2.3,2.3,0,0,0,1.513-1.976C82.26,589.18,81.71,588.6,80.952,588.787Z" transform="translate(-76.33 -588.132)" fill="#ffdb59" fill-rule="evenodd"/>
              </g>
              <path id="Path_601" data-name="Path 601" d="M63.829,546.669c0-1.371-.973-1.925-2.168-1.234l-17.707,10.04a4.754,4.754,0,0,0-2.154,3.73l.051,14.619c0,1.369.975,1.923,2.168,1.234l17.707-10.042a4.748,4.748,0,0,0,2.154-3.73Z" transform="translate(-41.8 -545.138)" fill-rule="evenodd" opacity="0.2" fill="url(#linear-gradient-8)"/>
            </g>
          </g>
        </g>
        <g id="Group_246" data-name="Group 246" transform="translate(0 0)">
          <g id="Group_243" data-name="Group 243">
            <path id="Path_602" data-name="Path 602" d="M52.839,297.067l-.637-.336a1.017,1.017,0,0,0-.813.144c-7.623,4.371-15.23,8.9-22.854,13.27a2.86,2.86,0,0,0-1.3,2.249L27.2,342.57a.956.956,0,0,0,.322.8c.239.178.734.562,1.125.336,7.623-4.373,15.09-9.287,22.711-13.658a2.855,2.855,0,0,0,1.3-2.249Z" transform="translate(-27.2 -296.696)" fill="#f2f4ff" fill-rule="evenodd"/>
            <path id="Path_603" data-name="Path 603" d="M55.376,299.062c0-.827-.587-1.161-1.307-.746-7.623,4.371-15.23,8.9-22.854,13.27a2.865,2.865,0,0,0-1.3,2.249l-.038,30.176c0,.825.587,1.159,1.307.744,7.623-4.373,15.232-8.9,22.854-13.27a2.855,2.855,0,0,0,1.3-2.249Z" transform="translate(-29.35 -297.852)" fill-rule="evenodd" fill="url(#linear-gradient-9)"/>
          </g>
          <g id="Group_244" data-name="Group 244" transform="translate(7.89 15.2)">
            <path id="Path_604" data-name="Path 604" d="M78.309,374.1c0-.5-.356-.7-.791-.451l-9.643,5.568a1.733,1.733,0,0,0-.785,1.361l.018,8.375c0,.5.356.7.791.451l9.643-5.568a1.733,1.733,0,0,0,.785-1.361Z" transform="translate(-67.09 -373.544)" fill="#fff" fill-rule="evenodd"/>
            <path id="Path_605" data-name="Path 605" d="M83.24,394.689c1.669-.963,3.024-.19,3.03,1.727a6.637,6.637,0,0,1-3.01,5.218c-1.667.963-3.024.19-3.03-1.729A6.633,6.633,0,0,1,83.24,394.689Z" transform="translate(-77.631 -390.174)" fill-rule="evenodd" fill="url(#linear-gradient-10)"/>
            <path id="Path_606" data-name="Path 606" d="M91.33,410.175l0-3.469,2.995-.245Z" transform="translate(-86.535 -399.949)" fill="#fff" fill-rule="evenodd"/>
          </g>
          <g id="Group_245" data-name="Group 245" transform="translate(1.756 31.114)">
            <path id="Path_607" data-name="Path 607" d="M59.305,454.127c0-.121-.085-.166-.19-.1L36.268,467.243a.423.423,0,0,0-.188.332l0,.364c0,.121.085.166.19.1l22.85-13.219a.423.423,0,0,0,.188-.332Z" transform="translate(-36.08 -453.996)" fill="#fd9c3c" fill-rule="evenodd"/>
            <path id="Path_608" data-name="Path 608" d="M45.661,494.1c0-.117-.083-.16-.184-.1l-9.215,5.333a.415.415,0,0,0-.182.32l0,.35c0,.117.083.16.184.1l9.215-5.331a.415.415,0,0,0,.182-.32Z" transform="translate(-36.08 -486.068)" fill="#6e4dfc" fill-rule="evenodd"/>
          </g>
        </g>
      </g>
      <g id="Group_249" data-name="Group 249" transform="translate(71.819 49.225)">
        <path id="Path_609" data-name="Path 609" d="M401.473,321.96l-7.7,3.756a7.69,7.69,0,0,0-3.485,6.037l.119,3.032c.006,2.217,1.578,3.113,3.509,2l7.408-4.221Z" transform="translate(-390.29 -318.042)" fill-rule="evenodd" opacity="0.5" fill="url(#linear-gradient-11)"/>
        <g id="Group_248" data-name="Group 248" transform="translate(0.674 0)">
          <path id="Path_610" data-name="Path 610" d="M412.574,304.629c-.006-2.217-1.576-3.113-3.507-2L397.185,309.4a7.69,7.69,0,0,0-3.485,6.037l.083,2.077c.006,2.217,1.578,3.113,3.509,2l11.882-6.773a7.682,7.682,0,0,0,3.485-6.037Z" transform="translate(-393.7 -302.15)" fill-rule="evenodd" fill="url(#linear-gradient-12)"/>
          <path id="Path_611" data-name="Path 611" d="M420.475,323.2a2.64,2.64,0,0,1-.225.613,2.124,2.124,0,0,1-.37.5,2.623,2.623,0,0,1-.542.4l-.4.231.008-3.022.39-.225a1.479,1.479,0,0,1,.583-.227.461.461,0,0,1,.366.107.645.645,0,0,1,.2.348,2.077,2.077,0,0,1,.063.556,3.053,3.053,0,0,1-.071.716Zm-10.193,5.309a.552.552,0,0,0-.265-.1,1.939,1.939,0,0,0-.3-.016c-.111,0-.21.012-.313.02a1.292,1.292,0,0,1-.265-.006.342.342,0,0,1-.188-.081.315.315,0,0,1-.073-.218.8.8,0,0,1,.038-.212.834.834,0,0,1,.095-.206,1.162,1.162,0,0,1,.158-.192,1.216,1.216,0,0,1,.225-.162,1.518,1.518,0,0,1,.3-.135,1.391,1.391,0,0,1,.245-.034c.067,0,.125.006.174,0a.154.154,0,0,0,.1-.008l.057-.049.03-.083c.008-.04.008-.073.014-.127v-.314c0-.042-.006-.073-.006-.1l-.022-.053-.034-.04a.655.655,0,0,0-.123-.014,1.372,1.372,0,0,0-.216.034,2.609,2.609,0,0,0-.255.077,2.48,2.48,0,0,0-.273.133,2.674,2.674,0,0,0-.506.374,2.7,2.7,0,0,0-.411.471,2.277,2.277,0,0,0-.277.566,1.856,1.856,0,0,0-.109.619,1.238,1.238,0,0,0,.069.443.63.63,0,0,0,.186.233.571.571,0,0,0,.267.095,1.447,1.447,0,0,0,.295.024c.107,0,.208-.012.3-.016a.862.862,0,0,1,.261.006.252.252,0,0,1,.186.087.266.266,0,0,1,.073.214.812.812,0,0,1-.044.261,1.1,1.1,0,0,1-.115.249,1.892,1.892,0,0,1-.2.222,1.774,1.774,0,0,1-.261.192,1.387,1.387,0,0,1-.384.162,2.317,2.317,0,0,1-.289.04c-.077-.006-.144-.006-.194-.012a.146.146,0,0,0-.115.008l-.049.046a.323.323,0,0,0-.038.091.571.571,0,0,0-.022.129,1.04,1.04,0,0,0-.01.18,1.492,1.492,0,0,0,.016.231c.014.049.028.085.057.1a.287.287,0,0,0,.131.022.542.542,0,0,0,.216-.008,1.842,1.842,0,0,0,.3-.081,2.462,2.462,0,0,0,.376-.174,3.333,3.333,0,0,0,.558-.413,2.972,2.972,0,0,0,.447-.524,2.468,2.468,0,0,0,.311-.621,1.962,1.962,0,0,0,.119-.684.962.962,0,0,0-.073-.423.506.506,0,0,0-.186-.225Zm3.111-.277a.063.063,0,0,0-.036-.046l-.049.014-1.387.8,0-1.258,1.163-.669.044-.042a.174.174,0,0,0,.044-.083c.006-.03.016-.067.024-.113a1.1,1.1,0,0,0,.008-.17,1.307,1.307,0,0,0-.006-.162.685.685,0,0,0-.022-.087c-.014-.026-.02-.038-.044-.034l-.044,0-1.163.669,0-1.084,1.381-.8.044-.042a.328.328,0,0,0,.038-.087.3.3,0,0,0,.022-.121,1.036,1.036,0,0,0,.008-.162,1.377,1.377,0,0,0-.006-.17.173.173,0,0,0-.02-.1c-.01-.03-.024-.038-.038-.038l-.044,0-1.929,1.11a.48.48,0,0,0-.239.429l-.012,3.879c0,.1.03.158.073.174a.162.162,0,0,0,.164-.022l1.936-1.114.049-.053.038-.079c.006-.028.014-.075.02-.121a.949.949,0,0,0,.01-.172.926.926,0,0,0-.008-.162l-.026-.093Zm3.853-6.017a.337.337,0,0,0-.1.032,1.906,1.906,0,0,0-.172.091,1.55,1.55,0,0,0-.174.109.7.7,0,0,0-.115.093.3.3,0,0,0-.057.083l-.024.079-.006,2.089c0,.16.006.322.006.5s.006.336.014.491c-.038-.069-.079-.136-.117-.208s-.071-.142-.115-.218-.079-.144-.123-.212-.085-.142-.127-.218l-.748-1.2a.922.922,0,0,0-.107-.162.247.247,0,0,0-.117-.075.261.261,0,0,0-.135,0,.862.862,0,0,0-.2.085l-.419.241a.608.608,0,0,0-.2.2.512.512,0,0,0-.087.291l-.012,4.005.02.055c.006.014.022.022.049.014a.528.528,0,0,0,.111-.028,2.766,2.766,0,0,0,.346-.2.79.79,0,0,0,.115-.1l.051-.071.024-.079.006-2.332c0-.174-.006-.338-.006-.5s-.016-.316-.014-.483c.049.107.1.218.16.324s.107.212.164.3l.955,1.527a.972.972,0,0,0,.137.2.244.244,0,0,0,.121.107.228.228,0,0,0,.136.012,1.508,1.508,0,0,0,.182-.089l.338-.2a.473.473,0,0,0,.109-.079.4.4,0,0,0,.095-.113.476.476,0,0,0,.065-.144.51.51,0,0,0,.03-.158l.012-4-.02-.053a.074.074,0,0,0-.053-.018Zm3.99-1.092a.845.845,0,0,0-.374-.457.889.889,0,0,0-.6-.067,2.931,2.931,0,0,0-.872.36l-1,.574a.6.6,0,0,0-.166.16.522.522,0,0,0-.067.265l-.01,3.879c0,.1.022.162.065.178a.17.17,0,0,0,.164-.022l.924-.532a5.039,5.039,0,0,0,.89-.645,3.568,3.568,0,0,0,.629-.769,3.518,3.518,0,0,0,.4-.938,4.271,4.271,0,0,0,.146-1.133A2.351,2.351,0,0,0,421.237,321.121Z" transform="translate(-405.18 -316.93)" fill="#fff" fill-rule="evenodd"/>
        </g>
      </g>
      <g id="Group_256" data-name="Group 256" transform="translate(78.167 52.298)">
        <path id="Path_612" data-name="Path 612" d="M500.774,651.85l-16.309-9.289c-1.778-.813-4.322-1.46-6.134-.516-1.65.858-4.369,2.617-5.572,3.3-.914.52-4.083,2.419-2.109,3.493,5.807,3.159,11.555,6.709,17.452,9.918a8.269,8.269,0,0,0,4.46.684,11.841,11.841,0,0,0,4.83-1.438l2.892-1.683a3.526,3.526,0,0,0,2.025-2.439C502.376,653.084,501.865,652.348,500.774,651.85Z" transform="translate(-460.594 -577.512)" fill="#955cf1" fill-rule="evenodd" opacity="0.25"/>
        <g id="Group_250" data-name="Group 250" transform="translate(25.959 70.963)">
          <path id="Path_613" data-name="Path 613" d="M563.007,688.211c-.37-.008-1.616-1.179-2.795-.587-1.416.71-4.108.081-5.467.407-.241.057-.714-.121-.809.045-.293.52-.576,1.3.144,1.808a12.361,12.361,0,0,0,2.407,1.133,20.548,20.548,0,0,0,3.044.862,3.949,3.949,0,0,1,1.836.51,2.658,2.658,0,0,0,1.4.336,2.357,2.357,0,0,0,1.784-1.246,5.314,5.314,0,0,0-.014-1.976,10.03,10.03,0,0,0-.631-1.725Z" transform="translate(-553.626 -685.28)" fill="#fff" fill-rule="evenodd"/>
          <path id="Path_614" data-name="Path 614" d="M586.39,676.861c.449,1.076.311,2.741,1.373,3.321a1.582,1.582,0,0,0,2.308-.714c.271-.615-.089-1.667-.01-3.018Z" transform="translate(-579.909 -676.45)" fill="#ffa495" fill-rule="evenodd"/>
          <path id="Path_615" data-name="Path 615" d="M560.341,683.243a44.7,44.7,0,0,1-4.484.194c-.611.049-1.159.045-1.444.6-.263.51-.125.948.471,1.369a10.191,10.191,0,0,0,2.172,1.066,20.555,20.555,0,0,0,3.044.862,3.949,3.949,0,0,1,1.836.51,2.662,2.662,0,0,0,1.4.336,2.464,2.464,0,0,0,1.784-1.325,4.891,4.891,0,0,0-.014-1.9,3.664,3.664,0,0,0-.1-.4c-.113-1.07-.465-1.5-.8-1.319a2.069,2.069,0,0,0-.8,1.072,1.048,1.048,0,0,1-.619.591,1.224,1.224,0,0,1-1.365-.6,3.852,3.852,0,0,1-.374-1.084c0-.036,0-.073,0-.109-.107-.936-.562-.852-.493-.657A.811.811,0,0,1,560.341,683.243Z" transform="translate(-554.156 -681.164)" fill="#273087" fill-rule="evenodd"/>
          <path id="Path_616" data-name="Path 616" d="M554.434,689.661c.01.362-.542.4-.384,1.031-.267-.261.1-1.011.269-1.123C554.386,689.523,554.444,689.5,554.434,689.661Z" transform="translate(-553.891 -686.947)" fill="#fff" fill-rule="evenodd"/>
        </g>
        <g id="Group_251" data-name="Group 251" transform="translate(17.191 66.582)">
          <path id="Path_617" data-name="Path 617" d="M518.182,659.236c-.344-.135-1.112-1.664-2.423-1.513a6.686,6.686,0,0,1-2.243-.322c-1.377-.392-3.3-1.622-3.622-1.42a1.286,1.286,0,0,0-.269,1.964,9.959,9.959,0,0,0,1.673,1.747,17.742,17.742,0,0,0,2.36,1.8c.758.419,1.009.384,1.547,1.112a2.543,2.543,0,0,0,1.2.76,2.853,2.853,0,0,0,2.342-.878,4.857,4.857,0,0,0,.425-2.92Z" transform="translate(-509.296 -655.63)" fill="#fff" fill-rule="evenodd"/>
          <path id="Path_618" data-name="Path 618" d="M543.807,654.3c.022,1.165-.72,2.664.055,3.592a1.58,1.58,0,0,0,2.409.184c.479-.473.53-1.582,1.1-2.811Z" transform="translate(-536.741 -654.3)" fill="#ffa495" fill-rule="evenodd"/>
          <path id="Path_619" data-name="Path 619" d="M514.472,656.484c-.079-.02-.156-.042-.235-.065-1.377-.392-3.216-1.339-3.543-1.139a1.023,1.023,0,0,0-.348,1.683,10.016,10.016,0,0,0,1.671,1.747,17.744,17.744,0,0,0,2.36,1.8c.758.419,1.009.382,1.547,1.112a2.56,2.56,0,0,0,1.2.76,2.921,2.921,0,0,0,2.376-.884,7.063,7.063,0,0,0,.483-2.023c.115-1.036.044-1.565-.407-1.551a2.5,2.5,0,0,0-1.531.682c-.746.465-1.246-.136-1.369-.88a4.32,4.32,0,0,1,.069-.983c.012-.036.024-.069.038-.1.245-.908-.208-1-.218-.791a.778.778,0,0,1-.692.793A5.919,5.919,0,0,1,514.472,656.484Z" transform="translate(-509.898 -655.063)" fill="#273087" fill-rule="evenodd"/>
          <path id="Path_620" data-name="Path 620" d="M510.472,655.433c-.146.33-.661.123-.789.766-.129-.35.53-.866.728-.9C510.49,655.286,510.551,655.294,510.472,655.433Z" transform="translate(-509.593 -655.099)" fill="#fff" fill-rule="evenodd"/>
        </g>
        <path id="Path_621" data-name="Path 621" d="M576.1,387.8c-2.738,3.177-2.779,3.424-8.128,6.567l-1.019-2a26.552,26.552,0,0,1,4.662-7.026,27.153,27.153,0,0,1-5.481-5.157c-3.489-4.656-1.551-7.89,1.462-7.235,2.629.572,6.729,7.376,8.96,11.213C577.487,385.758,577.712,385.934,576.1,387.8Z" transform="translate(-536.205 -361.95)" fill-rule="evenodd" fill="url(#linear-gradient-13)"/>
        <path id="Path_622" data-name="Path 622" d="M570.846,385.047a26.935,26.935,0,0,1-4.581-4.494c-3.489-4.656-1.45-7.8,1.563-7.142C569.4,373.891,572.207,377.218,570.846,385.047Z" transform="translate(-536.335 -362.319)" fill-rule="evenodd" opacity="0.35" fill="url(#linear-gradient-14)"/>
        <g id="Group_252" data-name="Group 252" transform="translate(23.445 31.536)">
          <path id="Path_623" data-name="Path 623" d="M542.52,480.676c-.3,3.378-1.994,14.168-1.523,17.131.708,4.454.506,9.837.5,14.564.121,1.986,2.85,3.024,3.645,1.762.639-4.225,1.547-7.926,1.915-10.274a17.027,17.027,0,0,0-.39-7.55,89.8,89.8,0,0,1,2.635-10.129c.388-1.216,2.585-5.151.311-9.061Z" transform="translate(-540.915 -477.12)" fill-rule="evenodd" fill="url(#linear-gradient-15)"/>
          <path id="Path_624" data-name="Path 624" d="M543.619,648.92c0,.35.01.884.01,1.228.119,1.986,2.886,3.064,3.679,1.8.047-.311.115-.619.164-.926C546.406,652.176,544.311,650.68,543.619,648.92Z" transform="translate(-543.084 -614.938)" fill="#4c57b7" fill-rule="evenodd"/>
          <path id="Path_625" data-name="Path 625" d="M540.96,513.9c.89,4.466,3.41,10.434,4.785,14.926.716-3.849,2.506-10.4.957-14.414.156-1.074.641-3.117,1.228-5.3-1.193-2.259-.053-4.063-.615-7.245-3.155-.55,1.606-4.4-5.072-.344A115.453,115.453,0,0,0,540.96,513.9Z" transform="translate(-540.951 -495.223)" fill="#060921" fill-rule="evenodd" opacity="0.3"/>
        </g>
        <g id="Group_253" data-name="Group 253" transform="translate(19.957 33.583)">
          <path id="Path_626" data-name="Path 626" d="M528.6,508.336c1.82,4.12,5.178,12.206,6.964,17.264.924,1.343,4.219,1.2,4.213-.049-.728-4.229-1.582-10.75-3.1-14.459a33.21,33.21,0,0,0-2.8-4.676c-.481-1.867-1.082-6.907-1.547-9.635.417-2.257,2.237-6.031-1.26-9.31-1.412,1-5.774,1.632-7.754.514C523,496.9,525.185,500.616,528.6,508.336Z" transform="translate(-523.285 -487.47)" fill-rule="evenodd" fill="url(#linear-gradient-16)"/>
          <path id="Path_627" data-name="Path 627" d="M583.48,675.78c.079.221.237.669.313.878.951,1.383,4.344,1.238,4.338-.051-.036-.21-.071-.423-.109-.643C587.212,676.789,584.766,676.8,583.48,675.78Z" transform="translate(-571.573 -638.533)" fill="#4c57b7" fill-rule="evenodd"/>
        </g>
        <path id="Path_628" data-name="Path 628" d="M528.916,384.861c-.295,2.649.5,5.254-.309,7.671-.036.249-.059,1.23-.1,1.5-.534,3.133-7.158,6.3-12.685,3.3-.03-.388,0-.8-.026-1.513a8.524,8.524,0,0,0-.186-1.8c.008-1.705.538-2.575.283-4.472-.518-3.859-2.654-7.568-1.474-10.6a3.233,3.233,0,0,1,1.2-1.373c1.305-1.048,8.06-4.488,10.108-4.731C531.675,372.062,529.236,381.989,528.916,384.861Z" transform="translate(-495.932 -361.888)" fill-rule="evenodd" fill="url(#linear-gradient-17)"/>
        <path id="Path_629" data-name="Path 629" d="M516.106,407.08c-.231-1.009-.558-2.172-.856-3.357-.6-2.374-1.084-4.844-.489-6.373a3.233,3.233,0,0,1,1.2-1.373c1.305-1.048,1.11,1.766,3.157,1.525a4.044,4.044,0,0,1,.119,2.356C518.851,403.246,517.227,408.126,516.106,407.08Z" transform="translate(-496.272 -380.303)" fill-rule="evenodd" opacity="0.35" fill="url(#linear-gradient-18)"/>
        <g id="Group_254" data-name="Group 254" transform="translate(21.015)">
          <path id="Path_630" data-name="Path 630" d="M529.187,332.117c.376.186,2.283-.085,2.227.087-.028.853-.281,1.371-.364,2.542,2.1-.293,4.85-.6,4.959-2.205-.008-.129-.016-.257-.022-.384a.287.287,0,0,0-.008-.044h.006a2.874,2.874,0,0,1,.168-1.379,10.646,10.646,0,0,0,1.681-2.607,4.425,4.425,0,0,0-1.294-4.963c-2.963-2.354-6.751-.678-7.712,2.763-.188.673.342,1.036.324,1.61,0,.113-.152.229-.273.479C528.712,328.361,528.726,331.89,529.187,332.117Z" transform="translate(-528.752 -321.201)" fill="#e7a376" fill-rule="evenodd"/>
          <path id="Path_631" data-name="Path 631" d="M529.23,332.089c.376.186,2.265-.065,2.207.107-.028.853-.281,1.371-.364,2.542,1.218.3,4.5-.138,4.994-1.988a11.475,11.475,0,0,1,.109-2.025,10.645,10.645,0,0,0,1.681-2.607,4.425,4.425,0,0,0-1.294-4.963c-2.963-2.354-6.751-.678-7.712,2.763-.188.673.342,1.036.324,1.61,0,.113-.152.229-.273.479C528.736,328.353,528.769,331.862,529.23,332.089Z" transform="translate(-528.775 -321.193)" fill-rule="evenodd" fill="url(#linear-gradient-19)"/>
          <path id="Path_632" data-name="Path 632" d="M529.291,332.1a3.033,3.033,0,0,0,1.636-.2,2.866,2.866,0,0,0,.726-.5c.255-.1.819-.9-.055-2.18-.853-1.244,4.31,1.94,4.583,1.5a10.7,10.7,0,0,0,1.681-2.607,4.425,4.425,0,0,0-1.294-4.963c-2.963-2.354-6.751-.678-7.712,2.763-.188.673.342,1.036.324,1.61,0,.113-.152.229-.273.479C528.74,328.345,528.838,331.858,529.291,332.1Z" transform="translate(-528.779 -321.185)" fill-rule="evenodd" fill="url(#linear-gradient-20)"/>
          <path id="Path_633" data-name="Path 633" d="M541.96,357.71c1.062-.989,2.087,2.158.378,2.124A1.467,1.467,0,0,0,541.96,357.71Z" transform="translate(-539.323 -349.638)" fill="#ffa698" fill-rule="evenodd"/>
          <path id="Path_634" data-name="Path 634" d="M541.692,358.539c-.16-.441-.026-.6.168-.552a1.25,1.25,0,0,1,.672.813c.253.736-.111,1.665-.821,1.3.611.036.554-.7.37-1.155C541.959,358.638,541.767,358.42,541.692,358.539Z" transform="translate(-539.051 -350.009)" fill="#ffb49c" fill-rule="evenodd"/>
          <path id="Path_635" data-name="Path 635" d="M542.613,361.82c-.17.318-.229.506-.174.617.038.075.156.162.348-.024A1.089,1.089,0,0,0,542.613,361.82Z" transform="translate(-539.691 -353.09)" fill="#ffa698" fill-rule="evenodd"/>
          <path id="Path_636" data-name="Path 636" d="M530.214,322.857l-.042-.022a1.815,1.815,0,0,1-.6-2.868c1.163-1.033,4.322-.926,6.324.107,2.037,1.05,2.538,3.661,1.929,5.712-.406,1.365-1.393,2.079-1.885,3.113a1.239,1.239,0,0,1-1.256.457c-1.412-.293-1.739-1.782-2.589-2.439-.465-.36-.945-.457-1.12.526-.034.431-.04.87-.071,1.268-.049.625.107.742-.423.955a4.713,4.713,0,0,1-1.663.34c-.133-.051-.125-.831-.1-1.414.053,0,.055.2.083.2.051-.008.115-.02.19-.028a2.3,2.3,0,0,0-.085-.708,1.1,1.1,0,0,0-.233-.53.9.9,0,0,1-.028-.457,1.434,1.434,0,0,1,.6.853,4.186,4.186,0,0,1,.156.775,1.467,1.467,0,0,0,.724-.237,2.756,2.756,0,0,0,.459-1.45,2.71,2.71,0,0,0-.643-2.239c-.17-.243-.178-.74.243-1.847A.542.542,0,0,0,530.214,322.857Z" transform="translate(-528.63 -318.936)" fill="#562e65" fill-rule="evenodd"/>
          <path id="Path_637" data-name="Path 637" d="M531.208,320.917c.439.552,2.328-.722,4.971-.237-.566-1.747-.894-2.116-1.687-2.627a2.6,2.6,0,0,0-3.323.524A2.2,2.2,0,0,0,531.208,320.917Z" transform="translate(-530.413 -317.684)" fill-rule="evenodd" fill="url(#linear-gradient-21)"/>
        </g>
        <path id="Path_638" data-name="Path 638" d="M539.259,373.54c.574.176,1.149.744,1.044,1.122-.57,2.33-4.9,2.771-7.556,2.211-.032-.006,1.033-1.4,1.541-1.569C535.961,375.469,538.742,374.917,539.259,373.54Z" transform="translate(-510.918 -362.492)" fill="#1896f0" fill-rule="evenodd"/>
        <g id="Group_255" data-name="Group 255" transform="translate(0 11.462)">
          <path id="Path_639" data-name="Path 639" d="M429.34,381.262c-.57-.528-1-1.165-1.648-1.853a54.265,54.265,0,0,0-4.638-3.673c-.489-.4-.91.437-.5.843s1.482,1.406,1.485,1.408a.424.424,0,0,0,.049.032,2.669,2.669,0,0,0-.611,1.634c-.012.676,1.258,1.8,2.039,2.583.692.7,1.824.293,2.279.827C428.79,382.821,429.053,382.126,429.34,381.262Z" transform="translate(-422.387 -375.631)" fill-rule="evenodd" fill="url(#linear-gradient-22)"/>
          <path id="Path_640" data-name="Path 640" d="M456.764,400.819a24.246,24.246,0,0,0-4.806-3.9,5.6,5.6,0,0,1-1.1-.506c-.239-.222-.586-.546-.72-.657a4.248,4.248,0,0,0-1.81,1.83c.235.3.467.627.7.963.17.249.22.9.388,1.161,1.042,1.628,3.483,3.715,4.812,5.176a5.685,5.685,0,0,0,1.948,1.628,4.092,4.092,0,0,0,1.691-.028c.091-.006.184-.016.279-.028l.19-.152a1.726,1.726,0,0,0,.556-.451c.32-.263.655-.542.967-.811a40.892,40.892,0,0,0,5.364-5.558c2.144-2.908.491-5.523-1.624-5.614-1.818-.077-3.283,2.324-4.235,3.545C458.5,398.525,457.53,399.787,456.764,400.819Z" transform="translate(-443.198 -390.263)" fill-rule="evenodd" fill="url(#linear-gradient-23)"/>
        </g>
      </g>
    </g>
  </g>
</svg>
