<svg xmlns="http://www.w3.org/2000/svg" xmlns:xlink="http://www.w3.org/1999/xlink" width="204.336" height="162.007" viewBox="0 0 204.336 162.007">
  <defs>
    <linearGradient id="linear-gradient" y1="-1.115" x2="1" y2="-1.115" gradientUnits="objectBoundingBox">
      <stop offset="0" stop-color="#023340"/>
      <stop offset="1" stop-color="#023340"/>
    </linearGradient>
    <linearGradient id="linear-gradient-2" x1="0" y1="-1.141" x2="1" y2="-1.141" xlink:href="#linear-gradient"/>
    <linearGradient id="linear-gradient-3" x1="0" y1="-1.168" x2="1" y2="-1.168" xlink:href="#linear-gradient"/>
    <linearGradient id="linear-gradient-4" x1="0" y1="-1.196" x2="1" y2="-1.196" xlink:href="#linear-gradient"/>
    <linearGradient id="linear-gradient-5" x1="0" y1="-1.225" x2="1" y2="-1.225" xlink:href="#linear-gradient"/>
    <radialGradient id="radial-gradient" cx="0.649" cy="0.337" r="1.478" gradientTransform="matrix(1, 0, 0, -1, 0, -1.613)" gradientUnits="objectBoundingBox">
      <stop offset="0.234" stop-color="#fff"/>
      <stop offset="1" stop-color="#6a6ad8"/>
    </radialGradient>
    <radialGradient id="radial-gradient-2" cx="0.253" cy="0.326" r="1.062" gradientTransform="translate(-128.798 -1.098) rotate(180) scale(1.391 1)" gradientUnits="objectBoundingBox">
      <stop offset="0.291" stop-color="#fff"/>
      <stop offset="1" stop-color="#6a6ad8"/>
    </radialGradient>
    <radialGradient id="radial-gradient-3" cx="0.39" cy="0.341" r="1.081" gradientTransform="translate(-414.058 -8.753) rotate(180) scale(1.588 1)" gradientUnits="objectBoundingBox">
      <stop offset="0.097" stop-color="#fff"/>
      <stop offset="1" stop-color="#6a6ad8"/>
    </radialGradient>
    <radialGradient id="radial-gradient-4" cx="0.406" cy="0.398" r="1.035" gradientTransform="translate(-102.835 1.709) rotate(180) scale(1.031 1)" gradientUnits="objectBoundingBox">
      <stop offset="0.415" stop-color="#fff"/>
      <stop offset="1" stop-color="#4489e1"/>
    </radialGradient>
    <radialGradient id="radial-gradient-5" cx="0.348" cy="0.337" r="1.443" gradientTransform="translate(-310.509 -7.343) rotate(180)" gradientUnits="objectBoundingBox">
      <stop offset="0.234" stop-color="#fff"/>
      <stop offset="1" stop-color="#c3c7ec"/>
    </radialGradient>
    <radialGradient id="radial-gradient-6" cx="0.373" cy="0.369" r="1.442" gradientTransform="translate(-200.852 -3.939) rotate(180) scale(0.831 1)" gradientUnits="objectBoundingBox">
      <stop offset="0.139" stop-color="#fff"/>
      <stop offset="1" stop-color="#6a6ad8"/>
    </radialGradient>
  </defs>
  <g id="text" transform="translate(-9.889 -12.04)">
    <g id="Group_259" data-name="Group 259" transform="translate(9.889 38.388)">
      <g id="Group_258" data-name="Group 258">
        <path id="Path_641" data-name="Path 641" d="M9.894,104.95a9.268,9.268,0,0,1,4.826-8.823Q37.5,82.872,60.279,69.6a20.315,20.315,0,0,1,18.833,0q54,31.419,108.015,62.828a9.187,9.187,0,0,1,4.822,8.341v4.383l-.143.491a8.569,8.569,0,0,1-2.232,3.777l-.072.076-.076.072a18.789,18.789,0,0,1-3.729,2.551q-5.694,3.312-11.389,6.629-15.659,9.121-31.323,18.237l-1.459.849-.033.019a20.126,20.126,0,0,1-12.361,2.07l-.052,0-.052-.01a18.022,18.022,0,0,1-6.228-2.055l-.033-.019-.033-.019Q92.356,160.14,61.973,142.478l-43.88-25.524-3.41-1.984-.033-.019a11.12,11.12,0,0,1-3.367-2.995l-.072-.1-.067-.1a6.665,6.665,0,0,1-1.254-3.768Z" transform="translate(-9.889 -67.287)" fill-rule="evenodd" opacity="0.05" fill="url(#linear-gradient)"/>
        <path id="Path_642" data-name="Path 642" d="M11.773,105.866a8.538,8.538,0,0,1,4.373-7.955Q38.93,84.655,61.7,71.385a19.408,19.408,0,0,1,17.922,0q54,31.419,108.015,62.828a8.294,8.294,0,0,1,4.373,7.583v4.23l-.1.367a7.641,7.641,0,0,1-2.017,3.405l-.052.057-.057.052a17.971,17.971,0,0,1-3.562,2.432q-5.694,3.312-11.389,6.629-15.659,9.121-31.323,18.237l-1.45.844-.024.014a19.243,19.243,0,0,1-11.813,1.965l-.038,0-.038,0a17.154,17.154,0,0,1-5.928-1.951l-.024-.014-.024-.014Q93.8,160.364,63.412,142.7l-43.88-25.524-3.4-1.979-.024-.014a10.218,10.218,0,0,1-3.114-2.761l-.052-.072-.048-.076A5.78,5.78,0,0,1,11.787,109Z" transform="translate(-10.861 -68.284)" fill-rule="evenodd" opacity="0.1" fill="url(#linear-gradient-2)"/>
        <path id="Path_643" data-name="Path 643" d="M13.673,106.761A7.542,7.542,0,0,1,17.6,99.674Q40.383,86.418,63.157,73.148a18.5,18.5,0,0,1,17.011,0q54,31.419,108.015,62.828a7.409,7.409,0,0,1,3.925,6.829v4.073l-.072.248a6.7,6.7,0,0,1-1.8,3.028l-.033.038-.038.033a17.252,17.252,0,0,1-3.4,2.313q-5.694,3.312-11.389,6.629-15.666,9.121-31.323,18.242l-1.44.839-.019.01a18.288,18.288,0,0,1-11.26,1.855l-.029,0-.024,0a16.253,16.253,0,0,1-5.632-1.85l-.019-.01-.019-.01Q95.234,160.559,64.85,142.9L20.97,117.372,17.579,115.4l-.019-.01a9.3,9.3,0,0,1-2.857-2.528l-.033-.048-.033-.048a4.936,4.936,0,0,1-.963-2.785Z" transform="translate(-11.856 -69.27)" fill-rule="evenodd" opacity="0.2" fill="url(#linear-gradient-3)"/>
        <path id="Path_644" data-name="Path 644" d="M15.572,107.666a6.442,6.442,0,0,1,3.472-6.2Q41.828,88.206,64.6,74.936a17.626,17.626,0,0,1,16.1,0q54,31.419,108.015,62.828a6.5,6.5,0,0,1,3.472,6.071v3.92l-.033.124a5.87,5.87,0,0,1-1.588,2.656l-.019.019-.019.019a16.445,16.445,0,0,1-3.238,2.189q-5.694,3.312-11.389,6.629-15.659,9.121-31.323,18.237l-1.431.835-.01,0a17.39,17.39,0,0,1-10.707,1.75H132.4a15.385,15.385,0,0,1-5.332-1.745l-.019-.01Q96.679,160.786,66.3,143.124q-21.94-12.762-43.88-25.524l-3.386-1.97-.01,0a8.406,8.406,0,0,1-2.6-2.3L16.4,113.3l-.014-.024a4.079,4.079,0,0,1-.82-2.294Z" transform="translate(-12.848 -70.27)" fill-rule="evenodd" opacity="0.3" fill="url(#linear-gradient-4)"/>
      </g>
      <path id="Path_645" data-name="Path 645" d="M192.307,144.855v3.763a4.926,4.926,0,0,1-1.369,2.28,14.983,14.983,0,0,1-3.076,2.07q-5.694,3.312-11.389,6.629-15.659,9.121-31.323,18.237l-1.426.83a16.465,16.465,0,0,1-10.153,1.645,14.256,14.256,0,0,1-5.036-1.645q-30.374-17.677-60.758-35.339L23.9,117.8l-3.377-1.965a7.454,7.454,0,0,1-2.351-2.065,3.267,3.267,0,0,1-.672-1.8v-3.415a5.534,5.534,0,0,1,3.024-5.318Q43.3,89.979,66.079,76.709a16.722,16.722,0,0,1,15.19,0q54,31.419,108.015,62.828A5.641,5.641,0,0,1,192.307,144.855Z" transform="translate(-13.867 -71.262)" fill-rule="evenodd" opacity="0.3" fill="url(#linear-gradient-5)"/>
    </g>
    <g id="Group_263" data-name="Group 263" transform="translate(12.448 38.533)">
      <path id="Path_646" data-name="Path 646" d="M314.249,215.37v3.791l-.086.3-.114.3-.134.291-.162.291-.181.286-.21.281-.234.277-.262.272-.281.267-.31.258-.334.248-.358.243-.382.234-1.431.835-1.435.835-1.436.835-1.435.835-1.431.835-1.435.835-1.435.835-1.431.839-1.435.835-1.436.835-1.435.835-1.431.835-1.436.835-1.435.835-1.431.835-1.436.835-1.435.839-1.431.835-1.435.835-1.436.835-1.431.835-1.435.835-1.436.835-1.435.835-1.431.839-1.435.835-1.436.835-1.431.835-1.435.835-1.436.835-1.435.835-1.431.835-.405.219-.415.21-.429.2-.444.176-.458.167-.463.148-.477.138-.486.124-.491.1-.5.1-.506.076-.51.067-.51.048-.52.038-.52.019-.515.01-.525-.01-.515-.019-.52-.038-.51-.048-.51-.067-.505-.076-.5-.1-.491-.1-.486-.124-.477-.138-.463-.148-.458-.167-.444-.176-.429-.2-.415-.21-.405-.219v-3.791l.405.224.415.205.429.2.444.176.458.167.467.153.472.134.486.124.491.1.5.1.505.076.51.067.51.052.52.033.52.024.52,0,.52,0,.515-.024.52-.033.515-.052.506-.067.506-.076.5-.1.491-.1.486-.124.477-.134.463-.153.458-.167.444-.176.429-.2.415-.205.405-.224,1.431-.835,1.435-.835,1.436-.835,1.435-.835,1.431-.835,1.436-.835,1.435-.835,1.436-.835,1.431-.835,1.436-.839,1.435-.835,1.431-.835,1.436-.835,1.435-.835,1.431-.835,1.435-.835,1.436-.835,1.431-.839,1.435-.835,1.436-.835,1.435-.835,1.431-.835,1.436-.835,1.435-.835,1.431-.835,1.435-.835,1.435-.835,1.431-.839,1.435-.835,1.436-.835,1.435-.835,1.431-.835.386-.234.358-.243.329-.248.31-.258.281-.267.262-.272.234-.277.21-.281.186-.286.157-.291.138-.291.11-.3Z" transform="translate(-138.053 -144.894)" fill="#36373b" fill-rule="evenodd"/>
      <path id="Path_647" data-name="Path 647" d="M127.334,205.529v3.791l-3.4-1.979-3.4-1.979-3.4-1.974-3.4-1.979-3.4-1.979-3.4-1.979-3.4-1.974-3.4-1.979-3.4-1.979-3.4-1.974-3.4-1.979-3.4-1.979-3.4-1.974-3.4-1.979-3.4-1.974-3.4-1.979-3.4-1.979-3.4-1.974-3.4-1.979-3.4-1.979-3.4-1.974-3.4-1.979-3.4-1.979-3.4-1.974-3.4-1.979-3.4-1.979-3.4-1.974-3.4-1.979-3.4-1.979-3.4-1.974-3.4-1.979-3.4-1.979-.382-.234-.358-.243-.334-.248-.305-.258-.286-.267-.258-.272-.234-.277-.21-.281-.186-.286-.157-.291-.138-.3-.11-.3-.086-.3V138.7l.086.3.11.3.138.291.157.291.186.286.21.281.234.277.258.272.286.267.305.258.334.248.358.243.382.234,3.4,1.979,3.4,1.979,3.4,1.979,3.4,1.974,3.4,1.979,3.4,1.979,3.4,1.974,3.4,1.979,3.4,1.979,3.4,1.974,3.4,1.979,3.4,1.979,3.4,1.974,3.4,1.979,3.4,1.979,3.4,1.974,3.4,1.979,3.4,1.974,3.4,1.979,3.4,1.979,3.4,1.974,3.4,1.979,3.4,1.979,3.4,1.974,3.4,1.979,3.4,1.979,3.4,1.974,3.4,1.979,3.4,1.979,3.4,1.979,3.4,1.974Z" transform="translate(-15.378 -104.788)" fill="#45464b" fill-rule="evenodd"/>
      <path id="Path_648" data-name="Path 648" d="M64.3,69.427a16.863,16.863,0,0,1,15.3,0q54.4,31.648,108.8,63.286c4.206,2.447,4.206,6.453,0,8.9q-22.949,13.356-45.893,26.721a16.863,16.863,0,0,1-15.3,0q-54.4-31.648-108.8-63.286c-4.206-2.447-4.206-6.453,0-8.9Q41.359,82.793,64.3,69.427Z" transform="translate(-15.255 -67.593)" fill="#333" fill-rule="evenodd"/>
      <path id="Path_649" data-name="Path 649" d="M64.956,70.226a16.447,16.447,0,0,1,14.889,0q54.4,31.648,108.8,63.286c3.934,2.289,3.934,5.909,0,8.2q-21.711,12.633-43.418,25.281a18.342,18.342,0,0,1-19.63.119q-53.266-30.99-106.536-61.965c-3.934-2.289-3.934-5.909,0-8.2Q42.012,83.592,64.956,70.226Z" transform="translate(-15.704 -68.038)" fill-rule="evenodd"/>
      <path id="Path_650" data-name="Path 650" d="M67.833,73.087l-4.206,2.447c-1.235.72-1.722,1.4-.3,2.327,2.008,1.316,1.884,3.434-.286,4.7C51.694,89.2,53.917,87.9,42.576,94.538a11.225,11.225,0,0,1-8.589.491c-1.373-.534-2.227-.94-3.539-.172-3.124,1.817-6.262,3.648-9.443,5.494-2.947,1.717-2.947,3.887,0,5.6,36.231,21.079,69.552,40.375,105.783,61.454a18.825,18.825,0,0,0,9.743,2.618,19.048,19.048,0,0,0,8.68-2.737q22.155-12.891,44.3-25.8c2.947-1.717,2.947-3.892,0-5.6-37-21.528-71.093-41.272-108.1-62.8A15.207,15.207,0,0,0,67.833,73.087Z" transform="translate(-17.107 -69.631)" fill="#4242bb" fill-rule="evenodd"/>
      <g id="Group_262" data-name="Group 262" transform="translate(138.244 81.896)">
        <g id="Group_260" data-name="Group 260" transform="translate(0 8.665)">
          <path id="Path_651" data-name="Path 651" d="M313.681,258.38v-.343c0-.525-.429-.706-.949-.405l-6.653,3.825a1.964,1.964,0,0,0-.949,1.5v.343c0,.525.429.706.949.405l6.653-3.825A1.976,1.976,0,0,0,313.681,258.38Z" transform="translate(-305.13 -257.486)" fill="gray" fill-rule="evenodd"/>
          <path id="Path_652" data-name="Path 652" d="M313.466,258.268v-.343a.6.6,0,0,0-.143-.42.838.838,0,0,0-.591.134l-6.653,3.825a1.964,1.964,0,0,0-.949,1.5v.343a.6.6,0,0,0,.143.42.838.838,0,0,0,.591-.134l6.653-3.825A1.992,1.992,0,0,0,313.466,258.268Z" transform="translate(-305.13 -257.489)" fill="#484d56" fill-rule="evenodd"/>
        </g>
        <g id="Group_261" data-name="Group 261" transform="translate(14.932)">
          <path id="Path_653" data-name="Path 653" d="M344.991,240.21v-.343c0-.525-.429-.706-.949-.405l-6.653,3.825a1.964,1.964,0,0,0-.949,1.5v.343c0,.525.429.706.949.405l6.653-3.825A1.976,1.976,0,0,0,344.991,240.21Z" transform="translate(-336.44 -239.316)" fill="gray" fill-rule="evenodd"/>
          <path id="Path_654" data-name="Path 654" d="M344.776,240.1v-.343a.6.6,0,0,0-.143-.42.838.838,0,0,0-.591.134l-6.653,3.825a1.964,1.964,0,0,0-.949,1.5v.343a.6.6,0,0,0,.143.42.838.838,0,0,0,.591-.134l6.653-3.825A1.984,1.984,0,0,0,344.776,240.1Z" transform="translate(-336.44 -239.319)" fill="#484d56" fill-rule="evenodd"/>
        </g>
      </g>
      <path id="Path_655" data-name="Path 655" d="M190.7,141.308,20.52,101.39a6.385,6.385,0,0,1,1.388-1.049q4.764-2.776,9.443-5.494c1.311-.763,2.165-.362,3.539.172a11.225,11.225,0,0,0,8.589-.491c11.341-6.639,9.123-5.337,20.464-11.975,2.165-1.269,2.294-3.386.286-4.7-1.421-.93-.93-1.607.3-2.327l4.206-2.447a15.233,15.233,0,0,1,13.587,0c37,21.528,71.093,41.272,108.1,62.8C193.266,137.54,193.361,139.624,190.7,141.308Z" transform="translate(-18.009 -69.625)" fill="#202aa5" fill-rule="evenodd"/>
    </g>
    <g id="Group_266" data-name="Group 266" transform="translate(99.917 86.86)">
      <g id="Group_264" data-name="Group 264" transform="translate(0.008 7.189)">
        <path id="Path_656" data-name="Path 656" d="M230.75,213.112v.52l0,.072.014.072.024.067.024.067.033.072.033.067.043.062.052.067.052.062.062.067.062.057.072.062.081.057.081.057.091.052,6.729,3.892.091.048.1.048.1.048.1.038.1.038.11.038.11.029.11.029.114.024.119.024.114.019.119.014.119.01.119.01.119,0h.243l.119,0,.119-.01.119-.01.119-.014.119-.019.114-.024.114-.024.11-.029.114-.029.1-.038.1-.038.1-.038.1-.048.1-.048.1-.048,31.485-18.2.091-.052.081-.057.076-.057.072-.062.067-.057.062-.062.052-.067.048-.062.043-.067.038-.067.033-.072.024-.067.019-.067.014-.072.01-.067V198.8l-.01.072-.014.067-.019.072-.024.067-.033.067-.038.067-.043.067-.048.067-.052.062-.062.062-.067.062-.072.057-.076.057-.081.057-.091.052-31.485,18.2-.1.052-.1.048-.1.043-.1.043-.1.038-.1.033-.114.033-.11.029-.114.024-.114.019-.119.019-.119.014-.119.014-.119,0-.119,0-.119,0-.124,0-.119,0-.119,0-.119-.014-.119-.014-.114-.019-.119-.019-.114-.024-.11-.029-.11-.033-.11-.033-.1-.038-.1-.043-.1-.043-.1-.048-.091-.052-6.729-3.892-.091-.052-.081-.057-.081-.057-.072-.057-.062-.062-.062-.062-.052-.067-.052-.062-.043-.067-.033-.067-.033-.067-.024-.072-.024-.067-.014-.072Z" transform="translate(-215.456 -191.742)" fill="#aaf2ff" fill-rule="evenodd"/>
        <path id="Path_657" data-name="Path 657" d="M198.68,196.528v.525l.01.067.014.072.019.067.024.072.033.067.038.067.043.067.048.062.052.067.062.062.067.062.072.057.076.057.081.057.091.052,9.81,5.67.091.052.1.048.1.043.1.043.1.038.11.033.11.033.11.029.114.024.119.019.114.019.119.014.119.014.119.01.119,0h.243l.119,0,.119-.01.119-.014.119-.014.119-.019.114-.019.114-.024.114-.029.11-.033.1-.033.1-.038.1-.043.1-.043.1-.048.1-.052,31.485-18.2.091-.057.081-.052.076-.057.072-.062.067-.062.062-.062.052-.062L244.8,185l.043-.067.038-.067.033-.067.024-.067.019-.072.014-.067.01-.072V184l-.01.067-.014.072-.019.067-.024.067-.033.072-.038.067-.043.067-.048.062-.052.067-.062.062-.067.057-.072.062-.076.057-.081.057-.091.052-31.485,18.2-.1.048-.1.048-.1.048-.1.038-.1.038-.1.038-.11.029-.114.029-.114.024-.114.024-.119.019-.119.014-.119.01-.119.01-.119,0h-.243l-.119,0-.119-.01-.119-.01-.119-.014-.114-.019-.119-.024-.114-.024-.11-.029-.11-.029-.11-.038-.1-.038-.1-.038-.1-.048-.1-.048-.091-.048-9.81-5.67-.091-.057-.081-.052-.076-.062-.072-.057-.067-.062-.062-.062-.052-.062-.048-.067-.043-.067-.038-.067-.033-.067-.024-.067-.019-.072-.014-.067Z" transform="translate(-198.68 -184)" fill="#aaf2ff" fill-rule="evenodd"/>
      </g>
      <g id="Group_265" data-name="Group 265">
        <path id="Path_658" data-name="Path 658" d="M230.886,169.347l-31.49,18.2a1.084,1.084,0,0,0,0,2.051l9.81,5.67a3.94,3.94,0,0,0,3.548,0l31.49-18.2a1.084,1.084,0,0,0,0-2.051l-9.81-5.67A3.94,3.94,0,0,0,230.886,169.347Z" transform="translate(-198.663 -168.925)" fill="#fff" fill-rule="evenodd"/>
        <path id="Path_659" data-name="Path 659" d="M262.956,187.883l-31.49,18.2a1.084,1.084,0,0,0,0,2.051l6.729,3.892a3.94,3.94,0,0,0,3.548,0l31.49-18.2a1.084,1.084,0,0,0,0-2.051l-6.729-3.892A3.91,3.91,0,0,0,262.956,187.883Z" transform="translate(-215.438 -178.619)" fill="#fff" fill-rule="evenodd"/>
      </g>
    </g>
    <g id="Group_269" data-name="Group 269" transform="translate(181.101 104.2)">
      <g id="Group_267" data-name="Group 267" transform="translate(18.512 21.617)">
        <path id="Path_660" data-name="Path 660" d="M410.394,270.222l1.44-1.059,3.062-3.734-.93-2.089c-.534.291-2.613,2.537-5.074,4.86-.691.506.01,0-.682.5-.477.329-.882,1.235.11,1.5.372.1.739.2,1.106.3A1.092,1.092,0,0,0,410.394,270.222Z" transform="translate(-407.709 -257.269)" fill="#b58080" fill-rule="evenodd"/>
        <path id="Path_661" data-name="Path 661" d="M414.109,258.522c1.855-2.179,4.34-4.76,5.957-7.1,1.3-2.313,4.793.854,3.353,2.6-2.49,3.024-5.041,5.99-6.419,7.363C416.742,261.837,414.062,259.514,414.109,258.522Z" transform="translate(-411.056 -250.611)" fill="#1c2d7e" fill-rule="evenodd"/>
      </g>
      <path id="Path_662" data-name="Path 662" d="M419.683,337.518c-.825,1.249-3.481.291-3.477.277a3.143,3.143,0,0,0-1.493-1.226,8.242,8.242,0,0,1-2.609-1.693c-1.059-1.1-1.374-1.817-1.245-2.246a4.536,4.536,0,0,0,1.245,1.822,8.242,8.242,0,0,0,2.609,1.693,3.2,3.2,0,0,1,1.493,1.226c0,.014,2.656.973,3.477-.277.014-.186.043-.429.057-.7A8.126,8.126,0,0,1,419.683,337.518Z" transform="translate(-390.831 -271.898)" fill="#6a0ba4" fill-rule="evenodd"/>
      <path id="Path_663" data-name="Path 663" d="M402.1,348.19a2.708,2.708,0,0,1-.191,1.245c.043.415-3.009.606-3.281.067-.229-.129-.162-.453-1.431-.067a12.57,12.57,0,0,1-4.416.229c-1.993-.625-2.547-1.149-2.27-1.574.205.339.892.72,2.27,1.149a12.566,12.566,0,0,0,4.416-.229c1.269-.391,1.2-.067,1.431.067.272.539,3.324.348,3.281-.067A2.652,2.652,0,0,0,402.1,348.19Z" transform="translate(-380.164 -279.985)" fill="#6a0ba4" fill-rule="evenodd"/>
      <path id="Path_664" data-name="Path 664" d="M419.684,336.032c-.825,1.25-3.481.291-3.477.277a3.144,3.144,0,0,0-1.493-1.226,8.243,8.243,0,0,1-2.609-1.693c-2.351-2.451-1.04-2.985.706-2.747a10.85,10.85,0,0,1,2.828.758,37.418,37.418,0,0,1,3.672,2.084A3.8,3.8,0,0,1,419.684,336.032Z" transform="translate(-390.832 -270.832)" fill="#8a17b2" fill-rule="evenodd"/>
      <path id="Path_665" data-name="Path 665" d="M401.906,343.586a3.384,3.384,0,0,1,0,2.275c.043.415-3.009.606-3.281.067-.229-.129-.162-.453-1.431-.067a12.569,12.569,0,0,1-4.416.229c-3.858-1.207-2.313-2.046.162-2.5,1.273-.234,4.354-1.5,5.294-1.526Q400.065,342.818,401.906,343.586Z" transform="translate(-380.165 -276.83)" fill="#8a17b2" fill-rule="evenodd"/>
      <path id="Path_666" data-name="Path 666" d="M415.076,273.5h1.836c1.211,0,3.591.434,4.8.434.768,5.246-.959,9.858-.72,14.856.1,2.156.5,4.216.6,6.3.186,3.806.439,6.014.62,9.82.076.472-4.893.758-5.437-.444a100.531,100.531,0,0,0-1.66-15.552C414.7,284.054,415.023,278.574,415.076,273.5Z" transform="translate(-392.963 -240.967)" fill="#162666" fill-rule="evenodd"/>
      <path id="Path_667" data-name="Path 667" d="M430.073,232.044c.067,1.75.286,7.335-.777,9.991-.148.367-.858.682-1.664.744a1.863,1.863,0,0,1-1.912-.92c-.739-2.06-.587-7.344-.663-9.2a4.7,4.7,0,0,1,2.27-4.345C428.537,227.724,429.944,228.735,430.073,232.044Z" transform="translate(-398.269 -217.248)" fill="#1c2d7e" fill-rule="evenodd"/>
      <path id="Path_668" data-name="Path 668" d="M400.917,274.44c2.194,0,6.505.258,8.7.258.348,3.186-.825,8.637-1.249,11.732-.281,2.079-1,4.359-1,6.448,0,2.184.348,4.278.348,6.386,0,3.858-.129,5.723-.129,9.586.1.754-4.588.863-5.065-.129a104.234,104.234,0,0,0-1.393-17.5c-.076-2.241-.653-4.96-.711-7.654C400.349,280.406,400.75,277.249,400.917,274.44Z" transform="translate(-385.38 -241.459)" fill="#1c2d7e" fill-rule="evenodd"/>
      <path id="Path_669" data-name="Path 669" d="M404.035,229.366a49.07,49.07,0,0,1,7.454-2.375c4.812-1.378,5.938,2.1,5.365,5.518-.7,4.182-1.941,6.061-2.332,8.78a56.985,56.985,0,0,0,.143,10.945c-.253.787-3.129,1.259-5,1.588l-.143-1.931-.2,1.993c-2.432.415-7.254,1.035-9.118-.615a78.9,78.9,0,0,0,.973-9.39c.129-2.055-.711-6.963-.649-9.1C400.615,231.908,401.049,230.758,404.035,229.366Z" transform="translate(-385.274 -216.477)" fill="#233898" fill-rule="evenodd"/>
      <path id="Path_670" data-name="Path 670" d="M410.012,219.469a4.277,4.277,0,0,0,0-2.208q-.587-.086-1.216-.172c-1.211-.167-1.073-.577-1.278-1.822-.076-.472-.138-.963-.176-1.416-.11-1.292.339-1.321.353-1.688s-.258-.882-.224-1.183a3.94,3.94,0,0,1,1.345-2.99q2.7.758,5.394,1.521a37.288,37.288,0,0,0,.868,8.837A6.862,6.862,0,0,1,410.012,219.469Z" transform="translate(-388.996 -206.699)" fill="#b86b4f" fill-rule="evenodd"/>
      <path id="Path_671" data-name="Path 671" d="M410.495,212.126a.456.456,0,0,1,.653.181c.243-1,.725-1.216,1.273-.649.587.61.668,1.993-.281,1.736a4.569,4.569,0,0,1,.749,2.28,6.568,6.568,0,0,0,2.575-.362,7.94,7.94,0,0,1,1.66-3.009,4.756,4.756,0,0,0,.434-4.006,3.987,3.987,0,0,0-3.7-2.943,8.912,8.912,0,0,0-4.674.568c-.887.558-.439,1.464,1.173,2.208C409.541,210.065,410.814,210.848,410.495,212.126Z" transform="translate(-389.736 -205.284)" fill="#060608" fill-rule="evenodd"/>
      <path id="Path_672" data-name="Path 672" d="M410.495,212.129a.456.456,0,0,1,.653.181c.243-1,.725-1.216,1.273-.649.587.61.668,1.993-.281,1.736a4.569,4.569,0,0,1,.749,2.28c.134,0,.262,0,.391,0,.415-.935.963-1.626,1.2-2.132a7.123,7.123,0,0,0,.434-4.955,4.539,4.539,0,0,0-2.47-3.3,7.106,7.106,0,0,0-3.257.634c-.887.558-.439,1.464,1.173,2.208C409.541,210.069,410.814,210.851,410.495,212.129Z" transform="translate(-389.736 -205.287)" fill="#060608" fill-rule="evenodd"/>
      <path id="Path_673" data-name="Path 673" d="M409.67,225.682c1.831-.1,3.505-.243,3.481-1.1a4.65,4.65,0,0,1,.219,1.192,6.567,6.567,0,0,0,2.575-.362h0c.024.138.052.277.076.415a12.6,12.6,0,0,1-4.65,1.021,4.642,4.642,0,0,0-.138-.9C410.724,225.868,410.223,225.758,409.67,225.682Z" transform="translate(-390.223 -215.378)" fill="#ad6046" fill-rule="evenodd"/>
      <path id="Path_674" data-name="Path 674" d="M416.355,206.359a3.712,3.712,0,0,0-.591-.424h0a4.588,4.588,0,0,0-1.55-.525h0a9.15,9.15,0,0,0-.949-.1h0a12.926,12.926,0,0,0-1.55.01h0a10.773,10.773,0,0,0-1.106.134,5.769,5.769,0,0,0-.887.229,2.561,2.561,0,0,0-.606.3h0a.755.755,0,0,0-.367.658h0a.959.959,0,0,0,.215.506h0a2.791,2.791,0,0,0,.677.6,6.29,6.29,0,0,0,.725.4h0c.482-.162,1.989-1.326,3.82-1.311A4.548,4.548,0,0,0,416.355,206.359Z" transform="translate(-389.74 -205.287)" fill="#060608" fill-rule="evenodd"/>
      <path id="Path_675" data-name="Path 675" d="M402.361,237.622c-.424,1.7-1.769,7.125-3.534,9.376a2.054,2.054,0,0,1-1.807.253c-.658-.134-1.531-.639-1.579-1.421-.134-2.184,1.483-7.22,1.932-9.018a4.691,4.691,0,0,1,3.4-3.539C402.09,233.044,403.163,234.408,402.361,237.622Z" transform="translate(-382.776 -219.912)" fill="#2743a2" fill-rule="evenodd"/>
      <g id="Group_268" data-name="Group 268" transform="translate(0 23.384)">
        <path id="Path_676" data-name="Path 676" d="M370.551,255.409l1.774-.219,4.788.62.758,2.156c-.591.157-3.644-.052-7.025-.057-.849.1.01,0-.839.1-.572.091-1.493-.3-.949-1.168.2-.324.4-.653.6-.978A1.093,1.093,0,0,1,370.551,255.409Z" transform="translate(-368.893 -254.773)" fill="#b86b4f" fill-rule="evenodd"/>
        <path id="Path_677" data-name="Path 677" d="M379.948,254.328c2.866.029,6.433.281,9.262.024,2.609-.486,2.413,4.225.148,4.24-3.915.024-7.831-.033-9.767-.21C379.089,258.472,379.156,254.928,379.948,254.328Z" transform="translate(-374.322 -254.316)" fill="#2743a2" fill-rule="evenodd"/>
      </g>
      <path id="Path_678" data-name="Path 678" d="M409.04,229.11a14.632,14.632,0,0,0,2.7.31,7.357,7.357,0,0,0,4.931-1.445,2.115,2.115,0,0,0-.32-1.445,15.347,15.347,0,0,1-5.2,1.288A10.091,10.091,0,0,0,409.04,229.11Z" transform="translate(-389.893 -216.398)" fill="#2743a2" fill-rule="evenodd"/>
    </g>
    <path id="Path_679" data-name="Path 679" d="M246.688,178.514l-1.588-.944-2.38,1.373,1.612.93,2.356-1.359Zm-17.226,9.939h0l12.519-7.225-1.612-.93-12.614,7.278h0l-2.261,1.307,1.612.93,2.356-1.359Zm-6.472-3.715-4,2.308-1.612-.93,3.906-2.256h0l6.853-3.954,1.612.93-6.758,3.9Zm-7.969,2.737-1.76,1.016,1.612.93,1.76-1.016-1.612-.93Zm-4.116,2.375-1.335.768,1.612.93,1.335-.768-1.612-.93Zm15.314-3.262L214.406,193.4l-1.612-.93,11.722-6.763h0l2.99-1.722,1.612.93-2.9,1.669Zm-3.081,3.653-7.106,4.1,1.612.93,7.106-4.1-1.612-.93Zm17.083-15.447-1.588-.944-4.025,2.323,1.612.93,4-2.308Zm-7.969,2.737-1.76,1.016,1.612.93,1.76-1.016-1.612-.93Zm11.193-.887-11.98,6.91-1.612-.93,12-6.925Z" transform="translate(-104.452 -84.642)" fill="#6a6ada" fill-rule="evenodd"/>
    <path id="Path_680" data-name="Path 680" d="M275.974,195.364l-1.588-.944-2.38,1.373,1.612.93,2.356-1.359Zm-17.226,9.944h0l12.519-7.225-1.612-.93-12.614,7.278h0l-2.261,1.307,1.612.93,2.356-1.359Zm-3.243-1.869-11.813,6.815-1.612-.93L253.8,202.56h0l2.99-1.722,1.612.93-2.895,1.669Zm-3.081,3.658-7.106,4.1,1.612.93,7.106-4.1-1.612-.93Zm20.307-13.6-11.98,6.91-1.612-.93,12-6.925Z" transform="translate(-121.457 -94.423)" fill="#6a6ada" fill-rule="evenodd"/>
    <g id="Group_271" data-name="Group 271" transform="translate(195.125 70.685)">
      <path id="Path_681" data-name="Path 681" d="M416.842,135.916l-1.168-.768-.114-.067-.124-.043-.134-.024-.143,0-.148.019-.157.038-.162.062-.167.086-14.589,8.417-.167.1-.162.124-.157.138-.148.157-.143.167-.134.181-.124.191-.114.2-.114.21-.1.21-.081.215-.067.219-.057.219-.038.219-.024.215-.01.215v9.266l.01.205.024.186.038.172.057.157.067.138.081.119.1.1,1.168.768-.1-.1-.081-.119-.067-.138-.057-.157-.038-.172-.024-.186-.01-.205v-9.266l.01-.215.024-.215.038-.219.057-.219.067-.219.081-.215.1-.21.1-.205.114-.2.124-.191.134-.181.143-.167.148-.157.157-.138.162-.124.167-.1,14.589-8.417.167-.086.162-.062.157-.038.148-.019.143,0,.134.024.124.043.124.062ZM402.063,157.2l-.315,5.055-1.168-.768.315-5.055Z" transform="translate(-398.3 -135.01)" fill="#4242bb" fill-rule="evenodd"/>
      <path id="Path_682" data-name="Path 682" d="M398.3,159.78v9.061l.01.205.024.186.038.172.057.157.067.138.081.119.1.1,1.168.768-.1-.1-.081-.119-.067-.138-.057-.157L399.5,170l-.024-.186-.01-.205v-9.157l-1.168-.672Zm3.763,10.373-1.168-.768-.315,5.055,1.168.768Z" transform="translate(-398.3 -147.967)" fill="#4242bb" fill-rule="evenodd"/>
      <g id="Group_270" data-name="Group 270" transform="translate(1.083 0.684)">
        <path id="Path_683" data-name="Path 683" d="M416.97,136.824l-14.589,8.417a3.782,3.782,0,0,0-1.631,2.985v9.266c0,1.126.734,1.621,1.631,1.1l.963-.558-.315,5.055,4.769-7.626,9.171-5.289a3.782,3.782,0,0,0,1.631-2.985v-9.266C418.605,136.8,417.871,136.3,416.97,136.824Z" transform="translate(-400.664 -136.534)" fill="#fff" fill-rule="evenodd"/>
        <path id="Path_684" data-name="Path 684" d="M402.831,163.325l.324-5.232-.83.477a1.165,1.165,0,0,1-1.187.1,1.4,1.4,0,0,1-.568-1.269v-9.262a3.857,3.857,0,0,1,1.674-3.057l14.589-8.417a1.165,1.165,0,0,1,1.187-.1,1.4,1.4,0,0,1,.568,1.269V147.1a3.857,3.857,0,0,1-1.674,3.057l-9.157,5.279Zm.515-5.527-.3,4.884,4.6-7.363.019-.01,9.171-5.289a3.678,3.678,0,0,0,1.593-2.914v-9.271a1.244,1.244,0,0,0-.486-1.126,1.018,1.018,0,0,0-1.021.1l-14.589,8.417a3.678,3.678,0,0,0-1.593,2.914V157.4a1.244,1.244,0,0,0,.486,1.126,1.019,1.019,0,0,0,1.021-.1Z" transform="translate(-400.57 -136.444)" fill="#e3e3e3"/>
      </g>
      <path id="Path_685" data-name="Path 685" d="M406.57,151.911l4.154-2.385v1.044l-4.154,2.385v-1.044Zm5.489-3.152,4.264-2.447v1.044l-4.264,2.447v-1.044Zm5.6-3.214,2-1.145v1.044l-2,1.145v-1.044ZM406.57,157.029l7.092-4.068V154l-7.092,4.068v-1.044ZM415,152.193l1.464-.839V152.4l-1.464.839v-1.044Zm2.8-1.607,1.86-1.068v1.044l-1.86,1.068v-1.044Zm-11.226,3.949v1.044l4.154-2.385V152.15l-4.154,2.385Zm5.489-3.152v1.044l7.6-4.359v-1.044Z" transform="translate(-402.626 -139.922)" fill="#4242bb" fill-rule="evenodd"/>
    </g>
    <g id="Group_282" data-name="Group 282" transform="translate(66.136 12.04)">
      <path id="Path_686" data-name="Path 686" d="M165.961,137.284c5.656,3.253,5.656,8.575,0,11.827-5.628,3.253-14.808,3.253-20.464,0s-5.656-8.575,0-11.827S160.338,134.032,165.961,137.284Z" transform="translate(-134.853 -76.278)" fill="#ececfb"/>
      <g id="Group_281" data-name="Group 281">
        <g id="Group_272" data-name="Group 272" transform="translate(28.405 21.079)">
          <path id="Path_687" data-name="Path 687" d="M192.164,56.24a4.774,4.774,0,1,0,4.774,4.774A4.761,4.761,0,0,0,192.164,56.24Z" transform="translate(-187.39 -56.24)" fill="url(#radial-gradient)"/>
          <path id="Path_688" data-name="Path 688" d="M199.014,68.254a1.673,1.673,0,0,1-.334-1.1,4.505,4.505,0,0,1,2.008-3.5,1.509,1.509,0,0,1,1.307-.181,1.673,1.673,0,0,1,.334,1.1,4.505,4.505,0,0,1-2.008,3.5A1.406,1.406,0,0,1,199.014,68.254Z" transform="translate(-193.296 -59.985)" fill="#192788"/>
          <path id="Path_689" data-name="Path 689" d="M203.08,64.97a4.505,4.505,0,0,1-2.008,3.5c-.73.424-1.34.367-1.7-.062a1.419,1.419,0,0,0,1.307-.181,4.472,4.472,0,0,0,2.008-3.5,1.645,1.645,0,0,0-.334-1.1A1.347,1.347,0,0,1,203.08,64.97Z" transform="translate(-193.657 -60.106)" fill="#fff"/>
        </g>
        <g id="Group_273" data-name="Group 273" transform="translate(7.439 23.08)">
          <path id="Path_690" data-name="Path 690" d="M143.5,75.221c.029.758.124,1.765.215,2.523.181,1.369.181,1.369.548,3.343a33.754,33.754,0,0,0,.854,3.405c.424,1.488.639,2.036,1.126,3.343a29.894,29.894,0,0,0,2.4,4.774,16.245,16.245,0,0,0,3.315,3.863,9.151,9.151,0,0,0,3.62,1.827,7.352,7.352,0,0,0,5.5-.973,10.5,10.5,0,0,0,1.974-1.521,14.892,14.892,0,0,0,1.431-1.612,19.42,19.42,0,0,0,1.974-3.043,31.166,31.166,0,0,0,1.521-3.253,45.156,45.156,0,0,0,2.008-6.81,37.3,37.3,0,0,0,.792-7.144,17.127,17.127,0,0,0-.61-5.017,11.54,11.54,0,0,0-1.827-3.772,10.581,10.581,0,0,0-3.009-2.647,14.366,14.366,0,0,0-4.225-1.641,19.115,19.115,0,0,0-6.72-.243,18.806,18.806,0,0,0-3.224.792,11.636,11.636,0,0,0-2.313,1.1,10.683,10.683,0,0,0-3.043,2.766,11.455,11.455,0,0,0-1.855,4.135c-.091.334-.181.758-.243,1.1a20.488,20.488,0,0,0-.243,2.1A14.858,14.858,0,0,0,143.5,75.221Z" transform="translate(-143.429 -60.434)" fill="url(#radial-gradient-2)"/>
          <path id="Path_691" data-name="Path 691" d="M153.045,62.366c4.044-2.432,10.7-2.461,14.87-.153,4.168,2.342,4.316,6.171.305,8.6-4.044,2.432-10.7,2.461-14.87.153C149.154,68.632,149,64.8,153.045,62.366Z" transform="translate(-146.921 -60.475)" fill="#fff"/>
          <path id="Path_692" data-name="Path 692" d="M171.065,68.459c.577-1.7-.334-3.558-2.647-4.836a14.386,14.386,0,0,0-12.953.153c-2.127,1.307-2.919,3.071-2.37,4.683a5.028,5.028,0,0,1,2.37-2.675,14.21,14.21,0,0,1,12.953-.153A5.294,5.294,0,0,1,171.065,68.459Z" transform="translate(-148.397 -61.337)" fill="#4489e1" opacity="0.2"/>
          <path id="Path_693" data-name="Path 693" d="M153.27,70.592a5.294,5.294,0,0,0,2.647,2.828,14.386,14.386,0,0,0,12.953-.153,5.13,5.13,0,0,0,2.37-2.675,5.294,5.294,0,0,0-2.647-2.828,14.386,14.386,0,0,0-12.953.153A5.044,5.044,0,0,0,153.27,70.592Z" transform="translate(-148.577 -63.502)" fill="#192788"/>
        </g>
        <g id="Group_274" data-name="Group 274" transform="translate(0 47.98)">
          <path id="Path_694" data-name="Path 694" d="M127.83,121.621v.277h0v.062c.029.61.029,1.1.091,1.488v.062c0,.091.029.181.029.243a1.276,1.276,0,0,0,.029.153V124a.61.61,0,0,1,.062.215h0a1.274,1.274,0,0,1,.029.153v.062h0v.029a1.41,1.41,0,0,0,.062.367.524.524,0,0,0,.062.215.655.655,0,0,0,.062.243c0,.062,0,.091.029.124a6.468,6.468,0,0,0,.243.668c.029,0,.029.029.062.062,0,.029.029.029.029.062.062.062.062.124.124.181a1.014,1.014,0,0,0,.272.367,1.239,1.239,0,0,0,.181.153,1.968,1.968,0,0,0,.243.124c.029,0,.029.029.062.029.029.029.091.029.153.062a2.034,2.034,0,0,0,.367.029h0c.062-.029.153-.029.243-.062h.029a.826.826,0,0,0,.243-.062c.029-.029.062-.029.091-.062a.105.105,0,0,0,.062-.029,2.322,2.322,0,0,0,.458-.243.149.149,0,0,0,.091-.062.975.975,0,0,0,.243-.153,2.5,2.5,0,0,0,.424-.334.719.719,0,0,0,.153-.124l.029-.029a.5.5,0,0,0,.153-.124l.124-.124h0l.153-.153.029-.029c.124-.124.215-.243.367-.4.124-.153.243-.272.367-.424l.062-.062c.091-.124.243-.305.4-.515h0c.181-.215.334-.458.424-.577,0-.062.029-.062.062-.124.091-.153.215-.305.305-.458.124-.215.243-.4.367-.577,0-.029.029-.029.029-.062a7.305,7.305,0,0,0,.367-.639c0-.062.029-.062.062-.124.062-.124.124-.243.181-.367a.609.609,0,0,0,.091-.153c.062-.091.091-.181.153-.272,0-.029.029-.062.062-.124a1.617,1.617,0,0,1,.091-.215,15.934,15.934,0,0,0,.792-1.974c.062-.243.124-.548.181-.911v-.124c.029-.029.029-.091.029-.153v-.548a1.719,1.719,0,0,0-.029-.367,5.007,5.007,0,0,0-.243-1.126c-.029-.029-.029-.062-.062-.091a.375.375,0,0,0-.062-.181c-.029-.029-.029-.062-.062-.124,0-.062-.029-.091-.062-.153,0-.029-.029-.062-.062-.124-.062-.062-.062-.153-.124-.215h0l-.029-.029c-.029-.062-.062-.062-.091-.124l-.062-.062a.294.294,0,0,1-.124-.091l-.062-.062c-.062-.062-.091-.062-.153-.124,0-.029-.029-.029-.062-.062a2.081,2.081,0,0,1-.243-.153,7.769,7.769,0,0,0-3.648-.973.556.556,0,0,0-.215.029h-.029c-.062,0-.091.029-.153.062h-.029a.028.028,0,0,1-.029.029h0c-.091.062-.181.062-.243.124,0,.029-.029.029-.062.062a.711.711,0,0,0-.215.124.149.149,0,0,0-.091.062.64.64,0,0,0-.243.153.149.149,0,0,0-.091.062,1.852,1.852,0,0,0-.243.215l-.029.029-.091.091-.091.091a.657.657,0,0,1-.153.181l-.153.153c-.062.029-.091.091-.153.153a.64.64,0,0,1-.153.243c-.029.062-.062.062-.091.124a2.712,2.712,0,0,0-.243.367h0a4.447,4.447,0,0,0-.4.911.1.1,0,0,0-.029.062,5.023,5.023,0,0,0-.153.486c-.029.124-.062.215-.091.367-.062.305-.091.424-.153.758h0v.029c-.091.4-.153.911-.215,1.307v.062c0,.062-.029.334-.062.792v1.736C127.863,121.588,127.863,121.621,127.83,121.621Z" transform="translate(-127.83 -112.668)" fill="url(#radial-gradient-3)"/>
          <path id="Path_695" data-name="Path 695" d="M139.594,114.909c.243-.062.4-.124.458-.243h0c.029,0,.029-.029.029-.062v-.186a.105.105,0,0,0-.029-.062c-.029-.033-.029-.029-.029-.062h0a2.189,2.189,0,0,0-.82-.668,7.769,7.769,0,0,0-3.648-.973,1.2,1.2,0,0,0-.424.091h0a.158.158,0,0,0-.124.062l-.029.029c-.029.029-.062.062-.062.091v.091h0c-.029.124.091.305.272.486.062,0,.091-.029.153-.029a7.671,7.671,0,0,1,3.648.973A3.772,3.772,0,0,1,139.594,114.909Z" transform="translate(-131.534 -112.647)" fill="#4489e1" opacity="0.2"/>
          <path id="Path_696" data-name="Path 696" d="M136,114.846a7.769,7.769,0,0,0,3.648.973c.062,0,.091-.029.153-.029a2.41,2.41,0,0,0-.577-.424,7.769,7.769,0,0,0-3.648-.973c-.062,0-.091.029-.153.029A4.736,4.736,0,0,0,136,114.846Z" transform="translate(-131.8 -113.558)" fill="#192788"/>
        </g>
        <g id="Group_277" data-name="Group 277" transform="translate(6.114)">
          <path id="Path_697" data-name="Path 697" d="M166.439,47.012c-.029.424-.029.792-.029,1.188,0,.515.029,1,.029,1.459.272,1.674,1.34,2.461,3.343,2.585a19.64,19.64,0,0,0,9.428-2.461,11.419,11.419,0,0,0,1-.668,14.482,14.482,0,0,0,3.467-9.428,15.293,15.293,0,0,0-.458-3.586c-.215,1.855-1.488,3.648-3.892,5.108A19.559,19.559,0,0,1,169.81,43.7,3.545,3.545,0,0,0,166.439,47.012Z" transform="translate(-154.124 -24.626)" fill="#192788"/>
          <path id="Path_698" data-name="Path 698" d="M166.524,48.256c0,.515.029,1,.029,1.459a1.147,1.147,0,0,0,.062.334c-.029-.424-.029-.911-.029-1.369,0-.4.029-.792.029-1.187a3.481,3.481,0,0,1,3.343-3.343,19.658,19.658,0,0,0,9.519-2.494,7.989,7.989,0,0,0,3.954-4.9c-.062-.215-.091-.458-.153-.668-.215,1.855-1.488,3.648-3.892,5.108a19.559,19.559,0,0,1-9.519,2.494,3.481,3.481,0,0,0-3.343,3.343C166.524,47.431,166.49,47.827,166.524,48.256Z" transform="translate(-154.176 -24.62)" opacity="0.3"/>
          <path id="Path_699" data-name="Path 699" d="M140.65,27.067a15.039,15.039,0,0,0,28.095,7.478,9.7,9.7,0,0,1-2.952,2.647,19.728,19.728,0,0,1-9.428,2.461c-2.036-.124-3.1-.944-3.343-2.585-.029-.486-.029-.944-.029-1.459,0-.4.029-.792.029-1.187a3.481,3.481,0,0,1,3.343-3.343,19.658,19.658,0,0,0,9.519-2.494c3.253-1.946,4.469-4.621,3.71-7.115a15.01,15.01,0,0,0-28.944,5.6Z" transform="translate(-140.649 -12.04)" fill="#fff"/>
          <path id="Path_700" data-name="Path 700" d="M140.65,27.067a15.039,15.039,0,0,0,28.095,7.478,9.7,9.7,0,0,1-2.952,2.647,19.728,19.728,0,0,1-9.428,2.461c-2.036-.124-3.1-.944-3.343-2.585-.029-.486-.029-.944-.029-1.459,0-.4.029-.792.029-1.187a3.481,3.481,0,0,1,3.343-3.343,19.658,19.658,0,0,0,9.519-2.494c3.253-1.946,4.469-4.621,3.71-7.115a15.01,15.01,0,0,0-28.944,5.6Z" transform="translate(-140.649 -12.04)" fill="url(#radial-gradient-4)"/>
          <path id="Path_701" data-name="Path 701" d="M166.73,59.733c.305,1.488,1.34,2.218,3.253,2.313a19.64,19.64,0,0,0,9.428-2.461,8.73,8.73,0,0,0,2.952-2.647,4.007,4.007,0,0,0,.548-2.1,18.933,18.933,0,0,1-.882,1.793l-.029.029a.611.611,0,0,0-.091.153h0a7.884,7.884,0,0,1-3.133,2.737,20.373,20.373,0,0,1-8.6,2.127A3.286,3.286,0,0,1,166.73,59.733Z" transform="translate(-154.292 -34.428)" fill="#fff"/>
          <path id="Path_702" data-name="Path 702" d="M140.893,43.579l-.243-.029c0,.272.062.577.062.911a8.494,8.494,0,0,0,.062.973c.272,2.07,1.793,4.073,4.559,5.628a19.879,19.879,0,0,0,6.51,2.127c-.029-.367-.029-.792-.029-1.216s0-.854.029-1.307a19.838,19.838,0,0,1-6.51-2.127c-2.494-1.4-3.982-3.133-4.44-4.96Z" transform="translate(-140.65 -28.523)" fill="#c3c7ec"/>
          <g id="Group_275" data-name="Group 275" transform="translate(18.857 20.015)">
            <path id="Path_703" data-name="Path 703" d="M182.408,54.009a2.649,2.649,0,1,1-2.218,2.613A2.417,2.417,0,0,1,182.408,54.009Z" transform="translate(-180.19 -54.009)" fill="#6a6ad8" opacity="0.3"/>
            <path id="Path_704" data-name="Path 704" d="M183.237,55.92a1.736,1.736,0,1,1-1.4,1.7A1.56,1.56,0,0,1,183.237,55.92Z" transform="translate(-181.053 -55.008)" fill="#6a6ad8" opacity="0.3"/>
            <path id="Path_705" data-name="Path 705" d="M183.8,57.13a1.059,1.059,0,0,1,.944,1.125,1.037,1.037,0,0,1-.944,1.126,1.143,1.143,0,0,1,0-2.251Z" transform="translate(-181.587 -55.641)" fill="#6a6ad8"/>
          </g>
          <g id="Group_276" data-name="Group 276" transform="translate(27.008 16.243)">
            <path id="Path_706" data-name="Path 706" d="M198.525,46.1c.668,0,1.245,1.188,1.245,2.613s-.577,2.613-1.245,2.613-1.245-1.154-1.245-2.613S197.824,46.071,198.525,46.1Z" transform="translate(-197.28 -46.099)" fill="#6a6ad8" opacity="0.3"/>
            <path id="Path_707" data-name="Path 707" d="M199.022,48.01c.424,0,.792.758.792,1.7s-.367,1.7-.792,1.7-.792-.758-.792-1.7S198.592,48.01,199.022,48.01Z" transform="translate(-197.777 -47.099)" fill="#6a6ad8" opacity="0.3"/>
            <path id="Path_708" data-name="Path 708" d="M199.348,49.23c.305,0,.548.515.548,1.125,0,.639-.272,1.126-.548,1.126-.305,0-.548-.515-.548-1.126S199.043,49.23,199.348,49.23Z" transform="translate(-198.075 -47.737)" fill="#6a6ad8"/>
          </g>
        </g>
        <path id="Path_709" data-name="Path 709" d="M147.747,81.866a7.659,7.659,0,0,1,3.467,6.023c0,2.222-1.55,3.1-3.467,2.008a7.652,7.652,0,0,1-3.467-6.023C144.28,81.652,145.863,80.774,147.747,81.866Z" transform="translate(-136.435 -48.32)" fill="#6a6ad8"/>
        <g id="Group_278" data-name="Group 278" transform="translate(4.549 41.126)">
          <path id="Path_710" data-name="Path 710" d="M138.509,106.966c-.73-.305-1.307-.515-1.1-1.278l1.793-6.386a1.4,1.4,0,0,1,2.7.758l-1.793,6.386c-.153.639-.639.577-1.245.577A.867.867,0,0,1,138.509,106.966Z" transform="translate(-137.369 -98.274)" fill="#192788"/>
        </g>
        <path id="Path_711" data-name="Path 711" d="M140.522,84.49A4.712,4.712,0,1,1,135.81,89.2,4.7,4.7,0,0,1,140.522,84.49Z" transform="translate(-132.004 -49.938)" fill="url(#radial-gradient-5)"/>
        <g id="Group_279" data-name="Group 279" transform="translate(34.169 25.814)">
          <path id="Path_712" data-name="Path 712" d="M207.424,73.051l-7.268-4.287a1.4,1.4,0,0,1,1.431-2.4l7.268,4.259a1.418,1.418,0,0,1,.486,1.917,1.4,1.4,0,0,1-1.216.7A1.2,1.2,0,0,1,207.424,73.051Z" transform="translate(-199.478 -66.168)" fill="#192788"/>
        </g>
        <g id="Group_280" data-name="Group 280" transform="translate(39.96 28.162)">
          <path id="Path_713" data-name="Path 713" d="M211.62,75.292a5.483,5.483,0,0,0,.7,2.585,5.381,5.381,0,0,0,1.793,1.917,12.54,12.54,0,0,0,1.827,1,17.026,17.026,0,0,0,2.461.973,22,22,0,0,0,5.017.973c-.458,0-.758-.4-.7-1.064a3.5,3.5,0,0,1,1.641-2.585c.577-.334,1.064-.243,1.278.181a18.49,18.49,0,0,0-2.952-4.168c-.82-.911-1.641-1.612-1.884-1.855a13.646,13.646,0,0,0-1.641-1.245,5.05,5.05,0,0,0-2.432-.882,5.232,5.232,0,0,0-1.431.029,4.622,4.622,0,0,0-1.278.367c-.062.029-.124.062-.181.091a4.871,4.871,0,0,0-2.218,3.467Z" transform="translate(-211.62 -71.09)" fill="url(#radial-gradient-6)"/>
          <path id="Path_714" data-name="Path 714" d="M234.952,90.164a1.17,1.17,0,0,0,.153.758,1.126,1.126,0,0,0,.758-.181,3.576,3.576,0,0,0,1.641-2.585,1.17,1.17,0,0,0-.153-.758,1.126,1.126,0,0,0-.758.181A3.472,3.472,0,0,0,234.952,90.164Z" transform="translate(-223.821 -79.611)" fill="#192788"/>
          <path id="Path_715" data-name="Path 715" d="M235.27,90.918c.243.334.7.4,1.245.091a3.576,3.576,0,0,0,1.641-2.585c.062-.61-.215-1-.61-1.064a1.365,1.365,0,0,1,.153.758,3.5,3.5,0,0,1-1.641,2.585A1.207,1.207,0,0,1,235.27,90.918Z" transform="translate(-223.991 -79.601)" fill="#fff"/>
        </g>
      </g>
    </g>
  </g>
</svg>
